<?xml version="1.0" encoding="utf-8"?><svg xmlns="http://www.w3.org/2000/svg" xmlns:xlink="http://www.w3.org/1999/xlink"><symbol viewBox="0 0 465 465" id="article"><path d="M405.437 0h-10c-4.143 0-7.5 3.358-7.5 7.5s3.357 7.5 7.5 7.5h2.5v435h-2.5c-4.143 0-7.5 3.358-7.5 7.5s3.357 7.5 7.5 7.5h10a7.5 7.5 0 0 0 7.5-7.5V7.5a7.5 7.5 0 0 0-7.5-7.5zm-90 140H109.563c-4.143 0-7.5 3.358-7.5 7.5s3.357 7.5 7.5 7.5h205.873c4.143 0 7.5-3.358 7.5-7.5s-3.357-7.5-7.499-7.5zm0 120H109.563c-4.143 0-7.5 3.358-7.5 7.5s3.357 7.5 7.5 7.5h205.873c4.143 0 7.5-3.358 7.5-7.5s-3.357-7.5-7.499-7.5zm0 40H232.5c-4.143 0-7.5 3.358-7.5 7.5s3.357 7.5 7.5 7.5h82.937a7.5 7.5 0 0 0 0-15z"/><path d="M365.437 0H129.563c-.251 0-.501.013-.749.038a7.53 7.53 0 0 0-.545.082c-.06.011-.122.016-.182.028a7.298 7.298 0 0 0-.632.159c-.025.008-.052.012-.077.02a7.434 7.434 0 0 0-.623.223l-.066.024a7.214 7.214 0 0 0-.569.269c-.031.016-.064.029-.094.045a7.977 7.977 0 0 0-.504.301c-.042.027-.086.049-.127.077-.154.103-.3.216-.446.33-.048.038-.098.07-.145.109a7.313 7.313 0 0 0-.498.451l-.046.042-70 70c-.018.018-.033.039-.051.057a7.503 7.503 0 0 0-.44.486c-.044.054-.082.112-.125.167a7.215 7.215 0 0 0-.313.423c-.033.049-.06.101-.092.151a7.24 7.24 0 0 0-.287.48c-.02.037-.035.075-.054.112a7.733 7.733 0 0 0-.261.552c-.011.026-.019.054-.03.081-.08.2-.155.402-.218.61-.008.026-.013.053-.021.08a6.989 6.989 0 0 0-.158.63c-.012.059-.017.119-.027.178-.032.182-.064.363-.082.549a7.468 7.468 0 0 0-.038.749v380a7.5 7.5 0 0 0 7.5 7.5h305.873a7.5 7.5 0 0 0 7.5-7.5V7.5a7.499 7.499 0 0 0-7.499-7.5zM122.063 25.606V70H77.67l44.393-44.394zM357.937 450H67.063V85h62.5a7.5 7.5 0 0 0 7.5-7.5V15h220.873v435z"/><path d="M159.563 85h155.873c4.143 0 7.5-3.358 7.5-7.5s-3.357-7.5-7.5-7.5H159.563a7.5 7.5 0 0 0 0 15zm155.874 95H232.5c-4.143 0-7.5 3.358-7.5 7.5s3.357 7.5 7.5 7.5h82.937a7.5 7.5 0 0 0 0-15zm0 40H232.5c-4.143 0-7.5 3.358-7.5 7.5s3.357 7.5 7.5 7.5h82.937a7.5 7.5 0 0 0 0-15zM192.5 315c4.143 0 7.5-3.358 7.5-7.5s-3.357-7.5-7.5-7.5h-82.937a7.5 7.5 0 0 0-7.5 7.5v80a7.5 7.5 0 0 0 7.5 7.5H192.5a7.5 7.5 0 0 0 7.5-7.5v-50c0-4.142-3.357-7.5-7.5-7.5s-7.5 3.358-7.5 7.5V380h-67.937v-65H192.5zm-82.937-80H192.5c4.143 0 7.5-3.358 7.5-7.5s-3.357-7.5-7.5-7.5h-82.937a7.5 7.5 0 0 0 0 15zm155.874 145H232.5c-4.143 0-7.5 3.358-7.5 7.5s3.357 7.5 7.5 7.5h32.937a7.5 7.5 0 0 0 0-15zm50-40H232.5c-4.143 0-7.5 3.358-7.5 7.5s3.357 7.5 7.5 7.5h82.937a7.5 7.5 0 0 0 0-15zM109.563 195H192.5c4.143 0 7.5-3.358 7.5-7.5s-3.357-7.5-7.5-7.5h-82.937a7.5 7.5 0 0 0 0 15z"/></symbol><symbol viewBox="0 0 976.271 976.271" id="basket"><path d="M275.573 630.437h589.502l111.196-446.076H175.336l-30.94-121.189H0v41.901h112.163L240.44 606.907l-23.529 47.056c-12.57 25.783-11.28 55.438 3.868 79.611 9.669 15.148 23.529 26.429 39.644 32.876-11.604 15.47-18.694 34.485-18.694 55.115 0 50.603 40.935 91.535 91.535 91.535s91.535-40.935 91.535-91.535c0-18.372-5.478-35.454-14.504-49.637h209.179c-9.346 14.18-14.504 31.265-14.504 49.637 0 50.603 40.935 91.535 91.535 91.535 50.6 0 91.541-40.932 91.541-91.535 0-18.372-5.478-35.454-14.504-49.637h67.041V730.03H290.077c-13.861 0-26.107-6.768-33.519-18.694-7.411-11.604-8.059-26.107-1.933-38.678l20.948-42.221zm420.614 141.494c27.398 0 49.637 22.239 49.637 49.637s-22.239 49.637-49.637 49.637-49.637-22.239-49.637-49.637c0-27.397 22.239-49.637 49.637-49.637zm-362.921 0c27.398 0 49.637 22.239 49.637 49.637s-22.239 49.637-49.637 49.637-49.637-22.239-49.637-49.637c0-27.397 22.242-49.637 49.637-49.637zM186.294 226.262h736.474L832.2 588.535H278.797l-92.503-362.273z"/></symbol><symbol viewBox="0 0 139.4 44.7" id="dorohovdesign"><path d="M52.2 19.5V8.1H57c3.6 0 6.1 2.1 6.1 5.7 0 3.5-2.6 5.7-6.1 5.7h-4.8zm7.9-5.7c0-1.8-1.1-3.1-3.1-3.1h-1.9v6.2H57c2 0 3.1-1.4 3.1-3.1m4.1 0c0-3.4 2.6-5.9 6.1-5.9 3.5 0 6.1 2.4 6.1 5.9 0 3.5-2.6 5.9-6.1 5.9-3.5 0-6.1-2.4-6.1-5.9m9.2 0c0-1.9-1.2-3.3-3.1-3.3-1.9 0-3.1 1.4-3.1 3.3 0 1.8 1.2 3.3 3.1 3.3 1.9 0 3.1-1.4 3.1-3.3m11 5.7l-1.9-3.8H81v3.8h-2.9V8.1h5.7c2.5 0 3.9 1.7 3.9 3.8 0 2-1.2 3-2.3 3.4l2.3 4.2h-3.3zm.3-7.6c0-.8-.6-1.2-1.4-1.2H81v2.4h2.3c.8 0 1.4-.4 1.4-1.2m4.2 1.9c0-3.4 2.6-5.9 6.1-5.9 3.5 0 6.1 2.4 6.1 5.9 0 3.5-2.6 5.9-6.1 5.9-3.5 0-6.1-2.4-6.1-5.9m9.1 0c0-1.9-1.2-3.3-3.1-3.3-1.9 0-3.1 1.4-3.1 3.3 0 1.8 1.2 3.3 3.1 3.3 1.9 0 3.1-1.4 3.1-3.3m12.4 5.7v-4.6h-4.7v4.6h-3V8.1h3v4.3h4.7V8.1h2.9v11.4zm4.6-5.7c0-3.4 2.6-5.9 6.1-5.9 3.5 0 6.1 2.4 6.1 5.9 0 3.5-2.6 5.9-6.1 5.9-3.5 0-6.1-2.4-6.1-5.9m9.2 0c0-1.9-1.2-3.3-3.1-3.3-1.9 0-3.1 1.4-3.1 3.3 0 1.8 1.2 3.3 3.1 3.3 1.9 0 3.1-1.4 3.1-3.3m7.3 5.7l-4.3-11.4h3.3l2.8 8.2 2.8-8.2h3.3l-4.2 11.4zm-79.3 17V25.1H57c3.6 0 6.1 2.1 6.1 5.7 0 3.5-2.6 5.7-6.1 5.7h-4.8zm7.9-5.7c0-1.8-1.1-3.1-3.1-3.1h-1.9v6.2H57c2 0 3.1-1.4 3.1-3.1m4.7 5.7V25.1h8.3v2.6h-5.3v1.8H73V32h-5.2v1.9h5.3v2.6zm9.6-1.6l1.5-2.2c.8.8 2.1 1.5 3.6 1.5 1 0 1.6-.4 1.6-.9 0-1.5-6.4-.3-6.4-4.7 0-1.9 1.6-3.6 4.5-3.6 1.8 0 3.4.5 4.6 1.6l-1.6 2.1c-1-.8-2.2-1.2-3.3-1.2-.8 0-1.2.3-1.2.8 0 1.4 6.4.4 6.4 4.6 0 2.3-1.7 3.8-4.7 3.8-2.2 0-3.8-.7-5-1.8m11.5-9.8h2.9v11.3h-2.9zm4.7 5.7c0-3.6 2.8-5.9 6.1-5.9 2.5 0 4.1 1.3 4.8 2.8L99.1 29c-.4-.7-1.3-1.4-2.4-1.4-1.9 0-3.2 1.4-3.2 3.3s1.3 3.3 3.2 3.3c.8 0 1.7-.3 2.1-.7v-.9h-2.6V30h5.5v4.5c-1.2 1.3-2.9 2.2-5 2.2-3.4 0-6.1-2.3-6.1-5.9m20.9 5.7l-4.8-6.6v6.6h-2.9V25.1h3l4.6 6.3v-6.3h2.9v11.4zM17.7 0H0v44.7h17.8c15 0 24.6-8.8 24.6-22.4C42.4 8.7 32.7 0 17.7 0m-.4 35.7h-8V9.5h8c9.3 0 15.7 3.7 15.7 12.7.1 7.5-5.8 13.5-15.7 13.5"/><path d="M19.1 17H17v10.6h2c4 0 6.4-2.4 6.4-5.4 0-3.7-2.6-5.2-6.3-5.2"/></symbol><symbol viewBox="0 0 512 512" id="email"><path d="M334.963 295.151l48.188-166.366h-27.648l-9.6 34.44c-3.985-11.179-10.163-20.702-18.475-28.399-12.962-11.981-30.703-18.048-52.753-18.048-21.231 0-40.858 5.99-58.3 17.801-17.067 11.503-31.812 26.47-43.802 44.442-11.87 17.826-21.137 37.726-27.511 59.136-6.366 21.41-9.6 42.462-9.6 62.566 0 11.23 1.545 22.383 4.574 33.084 3.098 11.008 8.081 20.881 14.848 29.329 6.784 8.474 15.454 15.437 25.771 20.702 10.402 5.342 22.946 8.047 37.299 8.047 11.895 0 23.125-2.057 33.391-6.118 10.052-3.985 19.174-8.951 27.145-14.814 7.996-5.888 15.036-12.706 20.941-20.25a202.32 202.32 0 0 0 3.26-4.284c1.519 12.706 6.502 22.707 14.916 29.926 12.066 10.3 27.546 15.539 46.037 15.539 21.956 0 41.788-4.634 58.94-13.764 17.084-9.096 31.556-21.734 43.042-37.598 11.358-15.744 20.139-34.62 26.095-56.124 5.939-21.385 8.951-44.621 8.951-69.111 0-30.558-5.931-59.383-17.613-85.7-11.665-26.24-28.245-49.306-49.314-68.531-21.018-19.149-46.225-34.287-74.931-44.996C330.099 5.41 298.313 0 264.35 0c-35.507 0-68.958 6.69-99.447 19.874-30.49 13.184-57.481 31.479-80.213 54.417-22.75 22.963-40.858 50.261-53.82 81.118-12.971 30.908-19.541 64.546-19.541 99.917s6.212 68.958 18.458 99.84c12.279 30.908 29.807 58.3 52.062 81.468 22.306 23.236 49.519 41.813 80.853 55.168C194.086 505.207 229.295 512 267.328 512c41.31 0 79.77-8.747 114.33-26.018 34.449-17.246 64.333-40.678 88.781-69.683l4.087-4.838-19.712-17.067-4.19 4.966c-21.12 25.02-47.966 45.918-79.77 62.165-31.65 16.145-66.475 24.311-103.526 24.311-33.69 0-64.93-6.118-92.885-18.15-27.998-12.058-52.335-28.749-72.311-49.604-20.028-20.881-35.746-45.542-46.72-73.344-10.991-27.827-16.572-57.899-16.572-89.412 0-29.73 5.675-58.778 16.879-86.349 11.204-27.571 26.948-52.284 46.771-73.421 19.831-21.103 43.742-38.127 71.066-50.611 27.324-12.459 57.737-18.773 90.436-18.773 29.739 0 57.728 4.813 83.183 14.285 25.404 9.472 47.71 22.861 66.338 39.757 18.603 16.922 33.348 37.12 43.853 59.981 10.462 22.886 15.77 48.154 15.77 75.102 0 19.405-2.185 38.426-6.494 56.576-4.258 17.894-10.94 34.065-19.866 48.102-8.747 13.764-20.164 24.969-33.937 33.314-13.619 8.243-30.242 12.433-49.408 12.433-10.112 0-18.739-2.509-25.609-7.441-6.289-4.565-9.353-12.681-9.353-24.866 0-4.966.64-11.102 1.92-18.227 1.289-7.229 2.825-13.97 4.574-20.037zm-13.107-46.43c-4.753 18.347-11.87 36.497-21.146 53.99-9.199 17.297-20.77 32.435-34.381 44.996-13.15 12.109-27.87 17.997-45.047 17.997-20.326 0-34.705-5.837-43.955-17.843-9.532-12.373-14.362-27.989-14.362-46.464 0-16.691 2.62-34.662 7.782-53.367 5.137-18.645 12.646-36.045 22.298-51.738 9.523-15.437 21.419-28.425 35.354-38.554 13.483-9.805 29.047-14.788 46.276-14.788 9.626 0 17.911 1.604 24.619 4.71 6.716 3.183 12.083 7.398 16.384 12.86 4.378 5.589 7.706 12.16 9.916 19.55 2.27 7.62 3.405 15.667 3.405 23.859-.001 11.41-2.407 26.471-7.143 44.792z"/></symbol><symbol viewBox="0 0 470.513 470.513" id="fb"><path d="M271.521 154.17v-40.541c0-6.086.28-10.8.849-14.13.567-3.335 1.857-6.615 3.859-9.853 1.999-3.236 5.236-5.47 9.706-6.708 4.476-1.24 10.424-1.858 17.85-1.858h40.539V0h-64.809c-37.5 0-64.433 8.897-80.803 26.691-16.368 17.798-24.551 44.014-24.551 78.658v48.82h-48.542v81.086h48.539v235.256h97.362V235.256h64.805l8.566-81.086h-73.37z"/></symbol><symbol viewBox="0 0 60 60" id="form-message"><path d="M30.5 0C14.233 0 1 13.233 1 29.5a29.47 29.47 0 0 0 3.896 14.65L.051 58.684a1 1 0 0 0 1.203 1.283l15.867-4.176A29.566 29.566 0 0 0 30.5 59C46.767 59 60 45.767 60 29.5S46.767 0 30.5 0zm0 57a27.59 27.59 0 0 1-10.132-1.945l4.849-1.079a1 1 0 1 0-.434-1.952l-7.76 1.727c-.006.001-.01.006-.016.007-.007.002-.014 0-.021.001L2.533 57.563l4.403-13.209a1 1 0 0 0-.089-.827A27.466 27.466 0 0 1 3 29.5C3 14.336 15.336 2 30.5 2S58 14.336 58 29.5 45.664 57 30.5 57z"/><path d="M17 23.015h14a1 1 0 0 0 0-2H17a1 1 0 0 0 0 2zm27 6H17a1 1 0 0 0 0 2h27a1 1 0 0 0 0-2zm0 8H17a1 1 0 0 0 0 2h27a1 1 0 0 0 0-2z"/></symbol><symbol viewBox="0 0 55 55" id="form-name"><path d="M55 27.5C55 12.337 42.663 0 27.5 0S0 12.337 0 27.5c0 8.009 3.444 15.228 8.926 20.258l-.026.023.892.752c.058.049.121.089.179.137.474.393.965.766 1.465 1.127.162.117.324.234.489.348.534.368 1.082.717 1.642 1.048.122.072.245.142.368.212a27.44 27.44 0 0 0 1.88.98l.142.064a27.252 27.252 0 0 0 6.651 2.105l.184.033c.724.125 1.456.225 2.197.292.09.008.18.013.271.021.738.061 1.484.1 2.24.1.749 0 1.488-.039 2.222-.098l.279-.021a27.808 27.808 0 0 0 2.178-.287l.187-.034a27.251 27.251 0 0 0 6.557-2.055c.076-.035.153-.068.229-.104a27.639 27.639 0 0 0 2.25-1.189 27.514 27.514 0 0 0 1.581-1c.185-.126.366-.259.549-.391.439-.316.87-.642 1.289-.983.093-.075.193-.14.284-.217l.915-.764-.027-.023C51.523 42.802 55 35.55 55 27.5zm-53 0C2 13.439 13.439 2 27.5 2S53 13.439 53 27.5c0 7.577-3.325 14.389-8.589 19.063a7.494 7.494 0 0 0-.893-.537l-8.467-4.233a2.217 2.217 0 0 1-1.232-1.993v-2.957c.196-.242.403-.516.617-.817a20.378 20.378 0 0 0 2.616-5.123 3.63 3.63 0 0 0 2.085-3.289v-3.545c0-.867-.318-1.708-.887-2.369v-4.667c.052-.519.236-3.448-1.883-5.864C34.524 9.065 31.541 8 27.5 8s-7.024 1.065-8.867 3.168c-2.119 2.416-1.935 5.345-1.883 5.864v4.667a3.644 3.644 0 0 0-.887 2.369v3.545c0 1.101.494 2.128 1.34 2.821.81 3.173 2.477 5.575 3.093 6.389v2.894a2.23 2.23 0 0 1-1.162 1.958l-7.907 4.313a7.227 7.227 0 0 0-.752.476C5.276 41.792 2 35.022 2 27.5zm40.459 20.632c-.35.254-.706.5-1.067.735-.166.108-.331.216-.5.321-.472.292-.952.57-1.442.83-.108.057-.217.111-.326.167a25.481 25.481 0 0 1-3.488 1.476l-.127.043c-.627.208-1.262.393-1.904.552l-.006.001a25.59 25.59 0 0 1-1.964.402l-.054.01c-.621.101-1.247.174-1.875.229-.111.01-.222.017-.334.025-.621.047-1.245.077-1.872.077a25.43 25.43 0 0 1-1.895-.078c-.109-.008-.218-.015-.326-.025a25.862 25.862 0 0 1-1.89-.233l-.084-.015a25.405 25.405 0 0 1-3.89-.971l-.118-.04a25.86 25.86 0 0 1-1.862-.713l-.013-.006a26.094 26.094 0 0 1-1.705-.816c-.073-.038-.147-.074-.219-.113a25.7 25.7 0 0 1-1.939-1.155 25.417 25.417 0 0 1-1.338-.933l-.133-.104.096-.054 7.907-4.313a4.229 4.229 0 0 0 2.205-3.714l-.001-3.602-.23-.278c-.022-.025-2.184-2.655-3.001-6.216l-.091-.396-.341-.221a1.657 1.657 0 0 1-.769-1.392v-3.545c0-.465.197-.898.557-1.223l.33-.298v-5.57l-.009-.131c-.003-.024-.298-2.429 1.396-4.36C21.583 10.837 24.061 10 27.5 10c3.426 0 5.896.83 7.346 2.466 1.692 1.911 1.415 4.361 1.413 4.381l-.009 5.701.33.298c.359.324.557.758.557 1.223v3.545a1.67 1.67 0 0 1-1.181 1.575l-.497.153-.16.495a18.5 18.5 0 0 1-2.496 5.032c-.262.37-.517.698-.736.949l-.248.283V39.8c0 1.612.896 3.062 2.338 3.782l8.467 4.233.16.083c-.107.081-.217.156-.325.234z"/></symbol><symbol viewBox="0 0 505.709 505.709" id="form-tel"><path d="M427.554 71.862c-99.206-95.816-256.486-95.816-355.692 0-98.222 101.697-95.405 263.762 6.292 361.984 99.206 95.816 256.486 95.816 355.692 0 98.222-101.696 95.405-263.762-6.292-361.984zm-5.74 349.952l-.085-.085c-93.352 93.267-244.636 93.198-337.903-.154S-9.372 176.94 83.98 83.673s244.636-93.198 337.903.153a238.932 238.932 0 0 1 69.905 169.028 238.934 238.934 0 0 1-69.974 168.96z"/><path d="M396.641 325.729l-47.957-47.787c-10.884-10.91-28.552-10.931-39.462-.047l-.047.047-27.477 27.477a6.058 6.058 0 0 1-7.765.683 310.599 310.599 0 0 1-42.069-35.328 312.33 312.33 0 0 1-31.915-37.291 5.973 5.973 0 0 1 .597-7.765l28.16-28.16c10.872-10.893 10.872-28.531 0-39.424l-47.957-47.957c-11.051-10.565-28.458-10.565-39.509 0l-15.189 15.189c-22.939 22.681-31.128 56.359-21.163 87.04a255.982 255.982 0 0 0 31.232 63.317 323.712 323.712 0 0 0 40.96 49.835 321.547 321.547 0 0 0 54.869 44.288 244.287 244.287 0 0 0 70.997 31.573 82.193 82.193 0 0 0 19.797 2.389 86.357 86.357 0 0 0 60.843-25.6l13.056-13.056c10.871-10.892 10.871-28.53-.001-39.423zm-12.084 27.785l-.034.034.085-.256-13.056 13.056a68.267 68.267 0 0 1-64.427 18.432 226.834 226.834 0 0 1-65.877-29.525 304.371 304.371 0 0 1-51.968-41.899 306.71 306.71 0 0 1-38.827-47.104 238.907 238.907 0 0 1-29.184-59.051 68.265 68.265 0 0 1 17.067-69.717l15.189-15.189c4.223-4.242 11.085-4.257 15.326-.034l.034.034 47.957 47.957c4.242 4.223 4.257 11.085.034 15.326l-.034.034-28.16 28.16c-8.08 7.992-9.096 20.692-2.389 29.867A329.334 329.334 0 0 0 220 282.978a327.314 327.314 0 0 0 44.373 37.291c9.167 6.394 21.595 5.316 29.525-2.56l27.221-27.648c4.223-4.242 11.085-4.257 15.326-.034l.034.034 48.043 48.128c4.243 4.222 4.258 11.083.035 15.325z"/></symbol><symbol viewBox="0 0 97.395 97.395" id="inst"><path d="M12.501 0h72.393c6.875 0 12.5 5.09 12.5 12.5v72.395c0 7.41-5.625 12.5-12.5 12.5H12.501C5.624 97.395 0 92.305 0 84.895V12.5C0 5.09 5.624 0 12.501 0zm58.447 10.821a4.395 4.395 0 0 0-4.383 4.385v10.495a4.396 4.396 0 0 0 4.383 4.385h11.008a4.398 4.398 0 0 0 4.385-4.385V15.206a4.397 4.397 0 0 0-4.385-4.385H70.948zm15.439 30.367h-8.572a28.486 28.486 0 0 1 1.25 8.355c0 16.2-13.556 29.332-30.275 29.332-16.718 0-30.272-13.132-30.272-29.332 0-2.904.438-5.708 1.25-8.355h-8.945v41.141a3.884 3.884 0 0 0 3.872 3.872h67.822a3.883 3.883 0 0 0 3.872-3.872V41.188h-.002zM48.789 29.533c-10.802 0-19.56 8.485-19.56 18.953s8.758 18.953 19.56 18.953c10.803 0 19.562-8.485 19.562-18.953s-8.758-18.953-19.562-18.953z"/></symbol><symbol viewBox="-262.6 409.9 12.3 22.5" id="link-arrow"><path d="M-261.2 432.4l-1.4-1.4 9.8-9.8-9.9-9.9 1.4-1.4 10.6 10.6c.4.4.4 1 0 1.4l-10.5 10.5z"/></symbol><symbol viewBox="0 0 512 512" id="location"><path d="M405.961 62.117C365.904 22.06 312.647 0 255.999 0c-56.647 0-109.904 22.06-149.96 62.117-82.689 82.687-82.689 217.233.001 299.922L256 512l149.962-149.961c82.686-82.687 82.688-217.233-.001-299.922zm-25.707 274.215L255.999 460.585 131.748 336.332c-68.513-68.515-68.513-179.994-.001-248.508 33.19-33.187 77.316-51.467 124.252-51.467 46.937 0 91.064 18.28 124.255 51.468 68.513 68.514 68.513 179.993 0 248.507z"/><path d="M311.7 156.378c-14.878-14.878-34.66-23.072-55.7-23.072s-40.822 8.193-55.7 23.072c-30.713 30.714-30.713 80.687 0 111.4 14.876 14.877 34.657 23.072 55.698 23.074h.007c21.036 0 40.817-8.196 55.695-23.074 30.714-30.714 30.714-80.686 0-111.4zm-25.707 85.694c-8.012 8.01-18.66 12.424-29.988 12.424h-.004c-11.331-.002-21.983-4.415-29.993-12.424-16.537-16.54-16.537-43.448.001-59.985 8.01-8.012 18.663-12.424 29.991-12.424 11.329 0 21.981 4.411 29.993 12.424 16.537 16.537 16.537 43.445 0 59.985z"/></symbol><symbol viewBox="0 0 68.9 63.3" id="logotip"><g fill-rule="evenodd" clip-rule="evenodd"><path fill="#2b2a29" d="M20.2 44.4c0-1.6-.8-2.9-2.3-2.9-1.4 0-2.3 1-2.3 2.8 0 1.6.8 2.9 2.4 2.9 1.4.1 2.2-1 2.2-2.8zm-1 .1c0 1.5-.4 2.1-1.2 2.1-1 0-1.3-.8-1.3-2.2 0-1.3.4-2.1 1.3-2.1s1.2.8 1.2 2.2zm5-3.5l-.3.2-1.3.5c-.3.1-.6.3-.9.6-.2.2-.4.5-.5.8-.2.6-.2 1.2-.2 1.7 0 .7 0 1.4.5 2 .4.4.8.6 1.3.6.6 0 1.1-.3 1.3-.6.2-.3.5-.7.5-1.5 0-.9-.3-1.3-.5-1.5-.2-.3-.6-.5-1.2-.5-.3 0-.6.1-.8.2-.2.1-.3.3-.4.4v-.2c0-.2.1-.8.7-1l1-.4c.1 0 .3-.1.5-.2s.3-.1.5-.2l-.2-.9zm-1.3 2.8c.2 0 .4.1.6.3.2.3.2.8.2 1.1 0 .3 0 .8-.2 1.1-.2.3-.4.3-.6.3-.2 0-.4-.1-.6-.3-.1-.2-.2-.7-.2-1.1 0-.3 0-.8.2-1.1.1-.2.3-.3.6-.3zm3.3-.6v.8c0 .5 0 .8-.1 1.3 0 .5-.1 1-.3 1.2-.1.1-.3.2-.4.2h-.2l.2.6h.2c.2 0 .6-.1.8-.3.2-.2.3-.5.3-.7 0-.3.1-.8.1-1 0-.4.1-.7.1-.9V44h.9v3.4h.9v-4.1h-2.5v-.1zm7.1 3.6c-.3-.2-.4-.4-.4-.9v-1.2c0-.6 0-.8-.1-1-.2-.4-.6-.7-1.2-.7s-1.1.2-1.7.6l.4.6s.6-.5 1.2-.5c.5 0 .6.2.6.7v.2h-.3c-1.3 0-2 .5-2 1.4 0 .7.4 1.2 1.3 1.2.4 0 .8-.1 1.1-.5.1.3.3.4.6.5l.5-.4zm-1.2-1.5v1c-.2.3-.4.4-.7.4-.4 0-.6-.2-.6-.6 0-.5.3-.8 1.1-.8h.2zm5 1.5l-.4-.5c-.3.3-.5.4-.8.4-.2 0-.4-.1-.5-.2-.2-.2-.3-.6-.3-1.1 0-.5 0-.9.2-1.1.1-.3.4-.4.6-.4.2 0 .4.1.7.3l.4-.6c-.4-.3-.7-.4-1.1-.4-.9 0-1.8.7-1.8 2.2 0 1.3.6 2.1 1.7 2.1.5-.2.9-.4 1.3-.7zm2.2-3h1l.1-.7h-3.1v.7h1.1v3.4h.9v-3.4zm2.7 1.6h1.4v1.8h.9v-4.1l-.9.2v1.5H42v-1.7l-.9.2v4h.9v-1.9zm6.9-.2c0-1.3-.7-2.1-1.8-2.1s-1.8.8-1.8 2.1.7 2.1 1.8 2.1 1.8-.8 1.8-2.1zm-1 0c0 1-.3 1.5-.8 1.5s-.8-.3-.8-1.5c0-1 .2-1.4.8-1.4.5-.1.8.3.8 1.4zm5.2.2v-.2c0-.9-.2-1.4-.5-1.8-.3-.3-.7-.4-1.1-.4-.5 0-.9.2-1.2.5-.4.4-.5.9-.5 1.6 0 1.3.7 2.1 1.9 2.1.5 0 1-.2 1.5-.5l-.3-.5c-.3.3-.6.4-1 .4-.8 0-1-.6-1-1.2v-.1h2.2v.1zm-.9-.6h-1.5c0-.7.3-1 .8-1 .4-.1.7.3.7 1zm-36.5 4.8h-.3c-.3 0-.5.1-.7.3-.2.2-.3.4-.3.6l-.2.7c0 .2-.1.4-.2.5-.2.2-.4.2-.6.2h-.6v-2.2h-.9v5.5h.9v-2.6h.5c.2 0 .4 0 .5.2.2.1.2.4.3.5l.2.8c0 .2.1.5.3.7.2.2.6.3.9.3h.3l.2-.6-.2-.1c-.1 0-.3-.1-.3-.2-.1-.1-.1-.2-.2-.4l-.3-.7c-.1-.2-.1-.4-.4-.6-.1-.1-.2-.2-.3-.2.2 0 .3-.1.4-.2.2-.2.3-.4.3-.7l.1-.6c0-.1.1-.3.2-.4.1-.1.2-.1.3-.1l.3-.1-.2-.6zm4.3 5.3c-.3-.2-.4-.4-.4-.9v-1.2c0-.6 0-.8-.1-1-.2-.4-.6-.7-1.2-.7s-1.1.2-1.7.6l.4.6s.6-.5 1.2-.5c.5 0 .6.2.6.7v.2h-.3c-1.3 0-2 .5-2 1.4 0 .7.4 1.2 1.3 1.2.4 0 .8-.1 1.1-.5.1.3.3.4.6.5l.5-.4zm-1.2-1.6v1c-.2.3-.4.4-.7.4-.4 0-.6-.2-.6-.6 0-.5.3-.8 1.1-.8h.2zm5.6 1.3h-.5v-3.4h-2.5v.6c0 .4 0 .9-.2 1.5-.1.4-.3.9-.5 1.4h-.3v1.8h.8v-1.1h2.4v1.1h.8v-1.9zM23 51.8v2.8h-1.5c.2-.3.3-.7.4-1.1.1-.4.2-.8.2-1.3v-.4h.9zm5.5 3.1c-.3-.2-.4-.4-.4-.9v-1.2c0-.6 0-.8-.1-1-.2-.4-.6-.7-1.2-.7s-1.1.2-1.7.6l.4.6s.6-.5 1.2-.5c.5 0 .6.2.6.7v.2H27c-1.3 0-2 .5-2 1.4 0 .7.4 1.2 1.3 1.2.4 0 .8-.1 1.1-.5.1.3.3.4.6.5l.5-.4zm-1.2-1.6v1c-.2.3-.4.4-.7.4-.4 0-.6-.2-.6-.6 0-.5.3-.8 1.1-.8h.2zm5 1.5l-.4-.5c-.3.3-.5.4-.8.4-.2 0-.4-.1-.5-.2-.2-.2-.3-.6-.3-1.1 0-.5 0-.9.2-1.1.1-.3.4-.4.6-.4.2 0 .4.1.7.3l.4-.6c-.4-.3-.7-.4-1.1-.4-.9 0-1.8.7-1.8 2.2 0 1.3.6 2.1 1.7 2.1.5-.2.9-.3 1.3-.7zm2.2-3h1l.1-.7h-3.1v.7h1.1v3.4h.9v-3.4zm1.8-.6c0 .2.1.5.1 1V57l.8-.2V55c.4.3.8.3 1 .3.5 0 .8-.2 1-.4.3-.3.6-.9.6-1.8s-.3-1.4-.5-1.7c-.2-.2-.5-.4-1-.4-.3 0-.8.1-1.1.5 0-.2 0-.3-.1-.5l-.8.2zm.9 1c.2-.2.5-.4.9-.4.2 0 .3 0 .5.2s.3.7.3 1.2c0 .3 0 .9-.4 1.2-.1.1-.3.2-.4.2-.3 0-.6-.2-.8-.4v-2h-.1zm6.9 1c0-1.3-.7-2.1-1.8-2.1s-1.8.8-1.8 2.1.7 2.1 1.8 2.1 1.8-.8 1.8-2.1zm-1 0c0 1-.3 1.5-.8 1.5s-.8-.3-.8-1.5c0-1 .2-1.4.8-1.4.5-.1.8.3.8 1.4zm2-2v4.1h1.8c.7 0 1-.3 1-.3.1-.1.3-.4.3-.8 0-.3-.1-.5-.3-.7-.1-.1-.2-.2-.5-.3.2-.1.3-.2.4-.3.2-.2.2-.4.2-.6 0-.2 0-.5-.3-.7-.3-.3-.8-.3-1-.3h-1.6v-.1zm.9.6h.6c.2 0 .4 0 .5.1.1.1.2.3.2.4 0 .1 0 .3-.1.4-.2.1-.4.2-.5.2H46v-1.1zm0 1.6h.6c.2 0 .4 0 .5.1.2.1.2.4.2.5 0 .1 0 .3-.2.4-.1.1-.4.2-.6.2H46v-1.2zm6.8-.2c0-1.3-.7-2.1-1.8-2.1s-1.8.8-1.8 2.1.7 2.1 1.8 2.1 1.8-.8 1.8-2.1zm-1 0c0 1-.3 1.5-.8 1.5s-.8-.3-.8-1.5c0-1 .2-1.4.8-1.4.5-.1.8.3.8 1.4zm5.2.2v-.2c0-.9-.2-1.4-.5-1.8-.3-.3-.7-.4-1.1-.4-.5 0-.9.2-1.2.5-.4.4-.5.9-.5 1.6 0 1.3.7 2.1 1.9 2.1.5 0 1-.2 1.5-.5l-.3-.5c-.3.3-.6.4-1 .4-.8 0-1-.6-1-1.2v-.1H57v.1zm-.9-.6h-1.5c0-.7.3-1 .8-1 .4-.1.7.3.7 1zM21.4 63.3l-1.8-5.5h-1.1l-1.8 5.5h1l.4-1.5h1.8l.4 1.5h1.1zm-3.1-2.2c.2-.8.5-1.6.7-2.4.2.8.4 1.6.7 2.4h-1.4zm4.6-1.2h1.6l.1-.7H22v4.1h.9v-3.4zm5.5 1.6v-.2c0-.9-.2-1.4-.5-1.8-.3-.3-.7-.4-1.1-.4-.5 0-.9.2-1.2.5-.4.4-.5.9-.5 1.6 0 1.3.7 2.1 1.9 2.1.5 0 1-.2 1.5-.5l-.5-.5c-.3.3-.6.4-1 .4-.8 0-1-.6-1-1.2v-.1h2.4v.1zm-.9-.7H26c0-.7.3-1 .8-1 .4 0 .7.4.7 1zm2.8.7h1.4v1.8h.9v-4.1l-.9.2v1.5h-1.4v-1.7l-.9.2v4h.9v-1.9zm4.9-1.6h1l.1-.7h-3.1v.7h1.1v3.4h.9v-3.4zm4.6 2.9l-.4-.5c-.3.3-.5.4-.8.4-.2 0-.4-.1-.5-.2-.2-.2-.3-.6-.3-1.1 0-.5 0-.9.2-1.1.1-.3.4-.4.6-.4.2 0 .4.1.7.3l.4-.6c-.4-.3-.7-.4-1.1-.4-.9 0-1.8.7-1.8 2.2 0 1.3.6 2.1 1.7 2.1.5-.1.9-.3 1.3-.7zm2.2-2.9h1l.1-.7H40v.7h1.1v3.4h.9v-3.4zm1.8-.7v4.1h1.8c.7 0 1-.3 1-.3.1-.1.3-.4.3-.8 0-.3-.1-.5-.3-.7-.1-.1-.2-.2-.5-.3.2-.1.3-.2.4-.3.2-.2.2-.4.2-.6 0-.2 0-.5-.3-.7-.3-.3-.8-.3-1-.3h-1.6v-.1zm.9.6h.6c.2 0 .4 0 .5.1.1.1.2.3.2.4 0 .1 0 .3-.1.4-.2.1-.4.2-.5.2h-.6v-1.1h-.1zm0 1.7h.6c.2 0 .4 0 .5.1.2.1.2.4.2.5 0 .1 0 .3-.2.4-.1.1-.4.2-.6.2h-.6v-1.2h.1zm6.8-.2c0-1.3-.7-2.1-1.8-2.1s-1.8.8-1.8 2.1.7 2.1 1.8 2.1 1.8-.8 1.8-2.1zm-1 0c0 1-.3 1.5-.8 1.5s-.8-.3-.8-1.5c0-1 .2-1.4.8-1.4.5-.1.8.2.8 1.4z"/><path fill="#008F8F" d="M45.9 35.2h-23c.8-.9 1.8-1.9 1.9-2 11.4-12.3 8-12.3 19.3.1.1.1 1.2 1.3 1.8 1.9z"/><path fill="#2b2a29" d="M21 33.6L33.5 19l-5.3-6.4z"/><path fill="#8EBFD9" d="M0 35.2h17.7l.6-1.7 1.8-5.6c.7-2.2 1.2-3.7-.3-4-2.3-.5-7.7 1.8-9.8 3-3 1.7-5.8 4-8.5 6.6 0 .1-1 1.1-1.5 1.7z"/><path fill="#008E69" d="M68.9 35.2H51.2l-.6-1.7-1.8-5.6c-.7-2.2-1.2-3.7.3-4 2.3-.5 7.7 1.8 9.8 3 3 1.7 5.8 4 8.5 6.6 0 .1 1 1.1 1.5 1.7z"/><path fill="#2b2a29" d="M39.6 9.8l8.2 23.7-14.7-17-2.9-3.5c-.5-.6-.7-.8-.9-1.6-.1-.4-.1-.7-.1-1.1 0-2.3 1.6-4.3 3.7-4.9V1.5c0-.8.7-1.5 1.5-1.5s1.5.7 1.5 1.5v3.9c2.3.7 3 2.3 3.7 4.4z"/><circle fill="#FFF" cx="34.4" cy="9.9" r="2.4"/></g></symbol><symbol viewBox="0 0 41.756 41.756" id="modal-close"><path d="M27.948 20.878L40.291 8.536a5 5 0 1 0-7.07-7.071L20.878 13.809 8.535 1.465a5 5 0 0 0-7.07 7.071l12.342 12.342L1.465 33.22a5 5 0 1 0 7.07 7.071l12.343-12.342 12.343 12.343c.976.977 2.256 1.464 3.535 1.464s2.56-.487 3.535-1.464a5 5 0 0 0 0-7.071L27.948 20.878z"/></symbol><symbol viewBox="0 0 309.156 309.156" id="owl-bottom"><path fill="#010002" d="M288.461 64.929L154.589 202.766 20.723 64.94 0 85.07l154.589 159.158L309.156 85.07z"/></symbol><symbol viewBox="0 0 47.1 25" id="owl-next"><path d="M1 11.5h41.5l-8.9-8.9C33 2 33 1.1 33.6.5c.6-.6 1.5-.6 2.1 0l11 11c.3.3.4.7.4 1.1s-.2.8-.4 1.1l-11 11c-.3.2-.7.3-1.1.3s-.8-.1-1.1-.4c-.6-.6-.6-1.5 0-2.1l8.9-8.9H1c-.6 0-1-.4-1-1 0-.7.4-1.1 1-1.1z"/></symbol><symbol viewBox="0 0 47.1 25" id="owl-prev"><path d="M46.1 11.5H4.6l8.9-8.9c.6-.6.6-1.5 0-2.1-.6-.6-1.5-.6-2.1 0l-11 11c-.2.2-.4.6-.4 1s.2.8.4 1.1l11 11c.3.3.7.4 1.1.4s.8-.1 1.1-.4c.6-.6.6-1.5 0-2.1l-8.9-8.9h41.5c.6 0 1-.4 1-1s-.6-1.1-1.1-1.1z"/></symbol><symbol viewBox="0 0 510.127 510.127" id="ruble"><path d="M34.786 428.963h81.158v69.572c0 3.385 1.083 6.156 3.262 8.322 2.173 2.18 4.951 3.27 8.335 3.27h60.502c3.14 0 5.857-1.09 8.152-3.27 2.295-2.166 3.439-4.938 3.439-8.322v-69.572h182.964c3.377 0 6.156-1.076 8.334-3.256 2.18-2.178 3.262-4.951 3.262-8.336v-46.377c0-3.365-1.082-6.156-3.262-8.322-2.172-2.18-4.957-3.27-8.334-3.27h-182.97v-42.754h123.184c48.305 0 87.73-14.719 118.293-44.199 30.551-29.449 45.834-67.49 45.834-114.125 0-46.604-15.283-84.646-45.834-114.125C410.548 14.749 371.116 0 322.812 0H127.535c-3.385 0-6.157 1.089-8.335 3.256-2.173 2.179-3.262 4.969-3.262 8.335v227.896H34.786c-3.384 0-6.157 1.145-8.335 3.439-2.172 2.295-3.262 5.012-3.262 8.151v53.978c0 3.385 1.083 6.158 3.262 8.336 2.179 2.18 4.945 3.256 8.335 3.256h81.158v42.754H34.786c-3.384 0-6.157 1.09-8.335 3.27-2.172 2.166-3.262 4.951-3.262 8.322v46.377c0 3.385 1.083 6.158 3.262 8.336 2.178 2.181 4.95 3.257 8.335 3.257zM199.628 77.179h115.938c25.6 0 46.248 7.485 61.953 22.46 15.697 14.976 23.549 34.547 23.549 58.691 0 24.156-7.852 43.733-23.549 58.691-15.705 14.988-36.354 22.473-61.953 22.473H199.628V77.179z"/></symbol><symbol viewBox="0 0 68.1 68.1" id="scroll"><path d="M34.5 67.9h-1c-10.1 0-18.3-8.2-18.3-18.3v-31C15.2 8.5 23.4.3 33.5.3h1c10.1 0 18.3 8.2 18.3 18.3v31c.1 10.1-8.2 18.3-18.3 18.3zm-.9-65.6c-9 0-16.3 7.3-16.3 16.3v31c0 9 7.3 16.3 16.3 16.3h1c9 0 16.3-7.3 16.3-16.3v-31c0-9-7.3-16.3-16.3-16.3h-1z"/><path d="M34.1 25.4c-1.2 0-2.3-1-2.3-2.2v-6.5c0-1.2 1-2.2 2.2-2.2 1.2 0 2.2 1 2.2 2.2v6.5c.1 1.2-.9 2.2-2.1 2.2z"/></symbol><symbol viewBox="0 0 56.966 56.966" id="search"><path d="M55.146 51.887L41.588 37.786A22.926 22.926 0 0 0 46.984 23c0-12.682-10.318-23-23-23s-23 10.318-23 23 10.318 23 23 23c4.761 0 9.298-1.436 13.177-4.162l13.661 14.208c.571.593 1.339.92 2.162.92.779 0 1.518-.297 2.079-.837a3.004 3.004 0 0 0 .083-4.242zM23.984 6c9.374 0 17 7.626 17 17s-7.626 17-17 17-17-7.626-17-17 7.626-17 17-17z"/></symbol><symbol viewBox="0 0 512.001 512.001" id="services-item1"><path d="M423.156 458.176c-20.852-6.193-42.415-12.598-84.882-12.598-42.469 0-64.031 6.404-84.883 12.598-20.501 6.089-39.866 11.841-79.678 11.841-39.805 0-59.166-5.752-79.664-11.84-19.297-5.732-39.2-11.645-75.72-12.495v-92.304a9.165 9.165 0 0 0-18.33 0v101.365a9.165 9.165 0 0 0 9.165 9.165c39.805 0 59.166 5.752 79.664 11.84 20.853 6.194 42.414 12.6 84.884 12.6 42.476 0 64.042-6.406 84.897-12.6 20.498-6.088 39.86-11.84 79.664-11.84 39.803 0 59.165 5.751 79.662 11.838l.004.001a9.161 9.161 0 0 0 11.394-6.176 9.164 9.164 0 0 0-6.177-11.395zM335.885 71.7c-36.602 0-66.38 29.779-66.38 66.382 0 36.603 29.778 66.382 66.38 66.382 36.603 0 66.382-29.779 66.382-66.382 0-36.603-29.779-66.382-66.382-66.382zm0 114.435c-26.496 0-48.051-21.557-48.051-48.052 0-26.496 21.557-48.052 48.051-48.052 26.497 0 48.052 21.557 48.052 48.052.001 26.496-21.556 48.052-48.052 48.052zM199.197 320.344c-1.18-7.669-3.492-15.173-6.871-22.304a9.166 9.166 0 0 0-16.565 7.847c2.62 5.529 4.409 11.331 5.32 17.247.698 4.53 4.601 7.77 9.046 7.77a9.163 9.163 0 0 0 9.07-10.56zm17.034 49.305c-3.629-4.807-6.731-10.197-9.22-16.021-1.991-4.654-7.377-6.814-12.03-4.824a9.164 9.164 0 0 0-4.826 12.029c3.072 7.186 6.924 13.868 11.446 19.859a9.147 9.147 0 0 0 7.322 3.644 9.135 9.135 0 0 0 5.515-1.851c4.041-3.051 4.843-8.798 1.793-12.836zm-48.968-103.241a105.727 105.727 0 0 0-18.998-12.446 9.164 9.164 0 0 0-12.333 3.982 9.164 9.164 0 0 0 3.982 12.333 87.505 87.505 0 0 1 15.702 10.283 9.124 9.124 0 0 0 5.818 2.088 9.164 9.164 0 0 0 5.829-16.24zm-104.882-4.232a9.164 9.164 0 0 0-12.283-4.136 222.565 222.565 0 0 0-18.922 10.566 9.164 9.164 0 0 0-2.916 12.628 9.156 9.156 0 0 0 12.629 2.917c5.57-3.48 11.408-6.74 17.355-9.691a9.166 9.166 0 0 0 4.137-12.284zm47.397-19.272c-8.009-.609-15.889-.125-23.247 1.422a9.164 9.164 0 1 0 3.772 17.936c5.666-1.191 11.799-1.559 18.087-1.081a9.165 9.165 0 0 0 9.832-8.445c.385-5.047-3.397-9.449-8.444-9.832z"/><path d="M258.493 397.187c-6.237-1.708-12.128-3.996-17.511-6.797a9.166 9.166 0 0 0-12.36 3.898c-2.338 4.49-.591 10.024 3.898 12.36 6.534 3.402 13.643 6.165 21.131 8.216.81.222 1.625.329 2.426.329a9.166 9.166 0 0 0 8.833-6.746 9.162 9.162 0 0 0-6.417-11.26zm103.495-28.78a9.163 9.163 0 0 0-11.991 4.917c-2.165 5.174-5.395 9.625-9.597 13.229a9.166 9.166 0 0 0 11.932 13.914c6.391-5.482 11.295-12.234 14.573-20.069a9.163 9.163 0 0 0-4.917-11.991zm7.823-29.55c-2.245-10.145-6.197-18.628-10.844-23.275a9.165 9.165 0 0 0-12.961 12.96c1.366 1.365 4.177 6.447 5.908 14.274a9.169 9.169 0 0 0 8.94 7.188c.655 0 1.321-.071 1.988-.219 4.941-1.094 8.062-5.986 6.969-10.928zm-47.831 67.012c-.989-4.965-5.815-8.187-10.776-7.201a120.643 120.643 0 0 1-19.153 2.219 9.165 9.165 0 0 0 .322 18.324c.11 0 .222-.003.335-.006a139.133 139.133 0 0 0 22.072-2.559 9.166 9.166 0 0 0 7.2-10.777z"/><path d="M502.835 103.834c-28.332 0-46.34-3.04-59.965-6.36-7.671-23.601-22.651-42.987-43.907-56.238-33.238-20.722-78.149-23.35-114.414-6.7-4.599 2.113-6.616 7.553-4.504 12.152a9.164 9.164 0 0 0 12.152 4.505c30.814-14.15 68.915-11.953 97.069 5.598 25.679 16.008 40.288 43.136 41.133 76.386.035 1.378.054 2.76.054 4.147 0 63.47-37.129 120.348-94.928 145.97-57.797-25.621-94.926-82.499-94.926-145.97 0-1.387.017-2.769.052-4.147.632-24.801 8.867-46.319 23.815-62.228a9.167 9.167 0 0 0-.403-12.955c-3.69-3.467-9.49-3.283-12.955.403-10.71 11.4-18.543 25.077-23.325 40.428-11.796 2.532-28.418 5.009-54.072 5.009-39.805 0-59.166-5.752-79.664-11.84-20.85-6.195-42.413-12.6-84.882-12.6C4.103 79.395 0 83.498 0 88.559v234.27a9.165 9.165 0 0 0 18.33 0V97.83c33.742.815 51.641 6.131 70.5 11.733 20.853 6.194 42.414 12.6 84.885 12.6 18.83 0 34.713-1.212 49.781-3.849a132.552 132.552 0 0 0-1.165 14.396 181.335 181.335 0 0 0-.059 4.613c0 72.179 43.075 136.711 109.74 164.406a9.165 9.165 0 0 0 7.032 0c66.665-27.694 109.742-92.228 109.742-164.406 0-1.542-.021-3.081-.059-4.613a132.35 132.35 0 0 0-1.293-15.441c11.782 2.378 26.466 4.325 46.239 4.789v347.85c-14.099-.348-26.628-1.525-38.086-3.566-4.976-.885-9.741 2.433-10.63 7.415a9.166 9.166 0 0 0 7.415 10.631c14.954 2.665 31.463 3.96 50.466 3.96a9.164 9.164 0 0 0 9.165-9.165V112.999a9.168 9.168 0 0 0-9.168-9.165z"/></symbol><symbol viewBox="0 0 54 54" id="services-item2"><path d="M53.516 1.143a.999.999 0 0 0-.983-.027L36 9.869 19.468 1.116c-.013-.007-.028-.009-.041-.015a1.004 1.004 0 0 0-.147-.055c-.028-.008-.055-.017-.083-.023a1.04 1.04 0 0 0-.168-.017c-.025-.001-.05-.004-.076-.003a.968.968 0 0 0-.16.025c-.03.006-.06.01-.089.019l-.02.004-18 6A1 1 0 0 0 0 8v43a1 1 0 0 0 1.316.948l17.646-5.882 16.657 6.859c.014.006.03.004.044.009.11.039.222.066.337.066a1 1 0 0 0 .266-.039c.028-.008.054-.021.082-.031.04-.015.082-.026.12-.046l17-9c.327-.173.532-.514.532-.884V2c0-.351-.184-.676-.484-.857zM2 8.721l16-5.333V30.38c-.43.078-.854.166-1.264.274a1 1 0 1 0 .513 1.934c.24-.064.502-.096.751-.148v11.84L2 49.612V8.721zM20 32.16c.321-.025.632-.066.961-.073a1.001 1.001 0 0 0-.021-2h-.022c-.31.007-.615.024-.918.045V3.661l15 7.941v21.194a14.952 14.952 0 0 1-2.201-.262 1 1 0 0 0-.38 1.963 16.99 16.99 0 0 0 2.582.289v15.721L20 44.33V32.16zm32 10.237l-15 7.941v-15.66a.993.993 0 0 0 .587-.98.994.994 0 0 0-.587-.821V11.602l15-7.941v38.736z"/><path d="M11 9c-2.757 0-5 2.243-5 5a5.009 5.009 0 0 0 4 4.899V21a1 1 0 1 0 2 0v-2.101A5.009 5.009 0 0 0 16 14c0-2.757-2.243-5-5-5zm0 8c-1.654 0-3-1.346-3-3s1.346-3 3-3 3 1.346 3 3-1.346 3-3 3zm34.07 10.673a1 1 0 0 0 1.296-.568c.47-1.199.847-2.553 1.123-4.024a1 1 0 0 0-.799-1.167 1.008 1.008 0 0 0-1.167.8c-.252 1.348-.595 2.58-1.019 3.663a1.001 1.001 0 0 0 .566 1.296zm-32.265 4.669a13.87 13.87 0 0 0-3.235 2.82 1 1 0 0 0 1.529 1.289 11.833 11.833 0 0 1 2.768-2.414 1.001 1.001 0 0 0-1.062-1.695zm-4.178 5.934a1 1 0 0 0-1.327.489c-1.026 2.226-1.28 4.023-1.291 4.099a.998.998 0 0 0 .992 1.135c.491 0 .919-.362.99-.861.002-.016.231-1.597 1.125-3.534a1.002 1.002 0 0 0-.489-1.328zm31.796-4.547a.998.998 0 0 0 .454-.109 10.419 10.419 0 0 0 3.384-2.786 1 1 0 1 0-1.56-1.252 8.414 8.414 0 0 1-2.735 2.257 1 1 0 0 0 .457 1.89zM29.17 31.432a12.399 12.399 0 0 1-.716-.322.996.996 0 0 0-.205-.078 32.59 32.59 0 0 0-3.173-.654.999.999 0 1 0-.302 1.977c.926.142 1.893.34 2.877.59.134.064.39.185.748.334a.999.999 0 0 0 1.308-.537 1 1 0 0 0-.537-1.31zm17.753-11.501l.065.002a1 1 0 0 0 .997-.937c.062-.961.093-1.978.093-3.02 0-.347-.003-.699-.01-1.058-.01-.553-.49-.973-1.018-.982a1 1 0 0 0-.982 1.018c.006.347.01.688.01 1.022 0 1-.03 1.973-.089 2.893a1 1 0 0 0 .934 1.062zm-38.63 8.776a.997.997 0 0 0 1.414 0L11 27.414l1.293 1.293a.997.997 0 0 0 1.414 0 .999.999 0 0 0 0-1.414L12.414 26l1.293-1.293a.999.999 0 1 0-1.414-1.414L11 24.586l-1.293-1.293a.999.999 0 1 0-1.414 1.414L9.586 26l-1.293 1.293a.999.999 0 0 0 0 1.414z"/></symbol><symbol viewBox="0 0 333.724 333.724" id="services-item3"><path d="M330.938 214.279l-52.918-39.905v-16.026a7 7 0 0 0-2.785-5.589L171.077 74.214a7 7 0 0 0-8.43 0L58.489 152.759a7 7 0 0 0-2.785 5.589v16.026L2.786 214.279a7 7 0 0 0-2.785 5.589v70.722a7 7 0 0 0 7 7h319.722a7 7 0 0 0 7-7v-70.722a7 7 0 0 0-2.785-5.589zm-156.507 69.31h-15.139v-35.286h15.139v35.286zm14 0v-42.286a7 7 0 0 0-7-7h-29.139a7 7 0 0 0-7 7v42.286H69.704V161.836l97.158-73.267 97.158 73.267v121.753h-75.589zm-174.43-60.233l41.703-31.448v91.681H14.001v-60.233zm305.722 60.233H278.02v-91.681l41.703 31.448v60.233z"/><path d="M11.215 169.273L166.862 51.902l155.646 117.372a6.97 6.97 0 0 0 4.21 1.412 6.999 6.999 0 0 0 4.22-12.589L171.077 37.546a7 7 0 0 0-8.43 0L2.786 158.096a6.999 6.999 0 0 0-1.374 9.803 6.999 6.999 0 0 0 9.803 1.374z"/></symbol><symbol viewBox="0 0 433 433" id="services-item4"><path d="M429.6 32.788a7.498 7.498 0 0 0-7.118-.585L320.713 76.94 113.095 31.739a7.503 7.503 0 0 0-4.613.463l-104 45.719A7.5 7.5 0 0 0 0 84.787v309.146a7.5 7.5 0 0 0 10.518 6.866l101.769-44.738 207.618 45.201a7.511 7.511 0 0 0 4.613-.463l104-45.719a7.5 7.5 0 0 0 4.482-6.866V39.068a7.5 7.5 0 0 0-3.4-6.28zM291.027 292.311l-45.598-62.742c-16.402-22.569-13.988-53.268 5.74-72.996 10.989-10.989 25.423-16.483 39.858-16.483s28.869 5.495 39.858 16.483c19.728 19.728 22.142 50.427 5.74 72.996l-45.598 62.742zm-164.51 51.496l17.097-17.09 89.125-89.134c.188.267.365.54.557.804l34.004 46.789-73.319 73.319-67.464-14.688zm235.658-152.972a71.424 71.424 0 0 0-20.684-44.87 71.658 71.658 0 0 0-6.526-5.752L418 57.179v240.958l-65.49-65.489a71.425 71.425 0 0 0 9.665-41.813zm-37.657-99.183l67.444-29.648-70.084 70.084c-21.272-10.175-46.573-9.234-67.087 2.85L214.42 94.567l20.873-20.873 84.611 18.42a7.5 7.5 0 0 0 4.614-.462zM112.287 46.915l105.587 22.987-34.983 34.982a7.5 7.5 0 0 0 0 10.606 7.474 7.474 0 0 0 5.303 2.197 7.474 7.474 0 0 0 5.303-2.197l10.317-10.317 38.822 38.822a72.32 72.32 0 0 0-2.073 1.97 71.424 71.424 0 0 0-20.684 44.87 71.42 71.42 0 0 0 5.305 33.087l-85.32 85.33-70.061-70.061 89.36-89.366a7.5 7.5 0 0 0 0-10.606 7.5 7.5 0 0 0-10.606 0l-42.422 42.425L15 90.507v-.825l97.287-42.767zM15 272.785v-69.396l45.834-45.834L95.53 192.25 15 272.785zm0-90.609V111.72l35.228 35.228L15 182.176zm0 111.823l44.198-44.201 14.27 14.27L15 322.536v-28.537zm0 49.75l69.074-69.074 45.184 45.184-22.065 22.056L15 382.442v-38.693zm305.713 42.336l-109.312-23.798 64.826-64.826 8.733 12.016a7.5 7.5 0 0 0 12.134 0l6.92-9.522 64.923 64.931-48.224 21.199zm62.959-27.676l-70.729-70.739 30.883-42.495L418 319.35v23.968l-34.328 15.091z"/><path d="M291.027 161.364c-19.335 0-35.066 15.73-35.066 35.066s15.73 35.066 35.066 35.066 35.066-15.73 35.066-35.066-15.73-35.066-35.066-35.066zm0 55.132c-11.064 0-20.066-9.001-20.066-20.066s9.001-20.066 20.066-20.066 20.066 9.001 20.066 20.066-9.001 20.066-20.066 20.066zm-127.422-85.777c1.703 4.349 7.261 5.907 11.09 3.37 3.913-2.592 4.366-8.221 1.14-11.54-2.635-2.562-6.794-2.917-9.772-.719-2.72 2.009-3.778 5.763-2.458 8.889.18.46-.19-.45 0 0z"/></symbol><symbol viewBox="0 0 512 512" id="services-item5"><path d="M504.05 195.048H400.166a7.95 7.95 0 0 0 0 15.9h13.25v58.302H263.95v-58.302h93.814a7.95 7.95 0 0 0 0-15.9H256a7.95 7.95 0 0 0-7.95 7.95v66.253h-74.733a7.95 7.95 0 0 0-7.95 7.95v66.253H90.634a7.95 7.95 0 0 0-7.95 7.95v68.373H7.95a7.95 7.95 0 0 0-7.95 7.95v74.203a7.95 7.95 0 0 0 7.95 7.95h78.443a7.95 7.95 0 0 0 0-15.9H15.901v-58.302h149.466v58.302h-36.571a7.95 7.95 0 0 0 0 15.9H504.05a7.95 7.95 0 0 0 7.95-7.95V202.998a7.95 7.95 0 0 0-7.95-7.95zm-322.783 90.103h149.466v58.302H181.267v-58.302zm232.149 74.203v58.302H263.95v-58.302h149.466zM98.584 417.656v-58.302H248.05v58.302H98.584zm232.149 76.323H181.267v-58.302h149.466v58.302zm165.366 0H346.634v-58.302H496.1v58.302zm0-76.323h-66.783v-58.302h66.783v58.302zm0-74.203H346.634v-58.302H496.1v58.302zm0-74.202h-66.783v-58.302h66.783v58.302z"/><path d="M472.248 2.12H359.884c-.76 0-1.515.109-2.243.323L249.517 34.245a7.95 7.95 0 0 0-5.277 5.054c-.229.314-31.395 59.546-31.395 59.546a81.685 81.685 0 0 0-45.888-14.041c-42.816 0-156.36 72.376-161.173 75.458-4.799 3.072-4.799 10.318 0 13.39 4.813 3.082 118.357 75.458 161.173 75.458 45.299 0 82.153-36.854 82.153-82.153 0-22.48-9.083-42.873-23.763-57.721l30.421-57.897 101.873 29.963a7.987 7.987 0 0 0 2.243.322h112.364c21.92 0 39.752-17.832 39.752-39.752S494.168 2.12 472.248 2.12zM233.209 166.957c0 36.531-29.721 66.253-66.253 66.253-28.641 0-104.234-42.993-141.93-66.253 37.696-23.259 113.289-66.253 141.93-66.253 14.32 0 27.582 4.582 38.43 12.336l-24.153 45.967h-63.039a7.95 7.95 0 0 0 0 15.9h67.843a7.95 7.95 0 0 0 7.038-4.253l24.418-46.472c9.793 11.551 15.716 26.481 15.716 42.775zm118.725-103.91l-71.998-21.175 71.998-21.176v42.351zm120.314 2.676h-104.44c.012-.176.026-.351.026-.53V18.021h104.414c13.151 0 23.851 10.699 23.851 23.851s-10.7 23.851-23.851 23.851z"/><path d="M86.393 159.006h-14.84a7.95 7.95 0 0 0 0 15.9h14.841a7.95 7.95 0 1 0-.001-15.9z"/></symbol><symbol viewBox="0 0 60 60" id="services-item6"><path d="M55.014 45.389l-9.553-4.776A2.63 2.63 0 0 1 44 38.248v-3.381c.229-.28.47-.599.719-.951a22.886 22.886 0 0 0 2.954-5.799A3.968 3.968 0 0 0 50 24.5v-4c0-.963-.36-1.896-1-2.625v-5.319c.056-.55.276-3.824-2.092-6.525C44.854 3.688 41.521 2.5 37 2.5s-7.854 1.188-9.908 3.53c-1.435 1.637-1.918 3.481-2.064 4.805C23.314 9.949 21.294 9.5 19 9.5c-10.389 0-10.994 8.855-11 9v4.579c-.648.706-1 1.521-1 2.33v3.454c0 1.079.483 2.085 1.311 2.765.825 3.11 2.854 5.46 3.644 6.285v2.743c0 .787-.428 1.509-1.171 1.915l-6.653 4.173A7.924 7.924 0 0 0 0 53.703V57.5h60v-4.043a8.973 8.973 0 0 0-4.986-8.068zM14 53.262V55.5H2v-1.797c0-2.17 1.184-4.164 3.141-5.233l6.652-4.173a4.143 4.143 0 0 0 2.161-3.641v-3.591l-.318-.297c-.026-.024-2.683-2.534-3.468-5.955l-.091-.396-.342-.22A1.59 1.59 0 0 1 9 28.863v-3.454c0-.36.245-.788.671-1.174l.329-.297-.002-5.38c.018-.287.539-7.058 9.002-7.058 2.393 0 4.408.553 6 1.644v4.731c-.64.729-1 1.662-1 2.625v4c0 .304.035.603.101.893.027.116.081.222.118.334.055.168.099.341.176.5l.003.005c.256.528.629 1 1.099 1.377l.016.054c.06.229.123.457.191.68l.081.261c.014.046.031.093.046.139.035.108.069.215.105.321.06.175.123.356.196.553.031.082.065.156.097.237.082.209.164.411.25.611.021.048.039.1.06.147l.056.126c.026.058.053.11.079.167.098.214.194.421.294.621l.047.099c.063.125.126.243.189.363a21.809 21.809 0 0 0 .888 1.539l.085.135c.242.375.452.679.626.916l.125.17.071.097v3.309c0 .968-.528 1.856-1.377 2.32l-2.646 1.443-.461-.041-.188.395-5.626 3.069A9.021 9.021 0 0 0 14 53.262zM58 55.5H16v-2.238a7.016 7.016 0 0 1 3.659-6.164l8.921-4.866A4.644 4.644 0 0 0 31 38.155v-4.019l-.194-.232-.038-.045c-.002-.003-.064-.078-.165-.21a9.504 9.504 0 0 1-.205-.275l-.003-.005a18.167 18.167 0 0 1-.544-.8l-.014-.022c-.098-.153-.202-.32-.308-.497l-.024-.04a20.468 20.468 0 0 1-.705-1.283l-.001-.002a20.237 20.237 0 0 1-.378-.802l-.052-.116c-.055-.125-.11-.256-.166-.391l-.06-.15c-.052-.131-.105-.263-.161-.414a16.51 16.51 0 0 1-.29-.849l-.055-.178-.019-.061a15.65 15.65 0 0 1-.26-.971l-.091-.396-.341-.22A1.994 1.994 0 0 1 26 24.5v-4c0-.561.238-1.084.67-1.475l.33-.297v-6.582l-.027-.021c-.034-.722.009-2.935 1.623-4.776C30.253 5.458 33.081 4.5 37 4.5c3.905 0 6.727.951 8.386 2.828 1.947 2.201 1.625 5.017 1.623 5.041L47 18.728l.33.298c.432.39.67.913.67 1.474v4c0 .873-.572 1.637-1.422 1.899l-.498.153-.16.495a20.934 20.934 0 0 1-2.834 5.713c-.297.421-.586.794-.837 1.079l-.249.284v4.125c0 1.77.983 3.361 2.566 4.153l9.553 4.776A6.982 6.982 0 0 1 58 53.457V55.5z"/></symbol><symbol viewBox="0 0 512 512" id="services-item7"><path d="M499.525 55.736H438.55V10.514C438.55 4.707 433.844 0 428.037 0H83.965c-5.806 0-10.514 4.707-10.514 10.514v45.223H12.475c-5.806 0-10.514 4.707-10.514 10.514v435.236c0 5.806 4.707 10.514 10.514 10.514H221.6c5.806 0 10.514-4.707 10.514-10.514V456.27h47.774v45.217c0 5.806 4.706 10.514 10.514 10.514h209.125c5.808 0 10.514-4.707 10.514-10.514V66.25c-.002-5.806-4.708-10.514-10.516-10.514zM94.478 21.027h323.045v358.847h-38.798V66.584c0-5.806-4.706-10.514-10.514-10.514H137.576c-5.806 0-10.514 4.707-10.514 10.514v32.24H94.478V21.027zm-71.49 469.944V76.764h50.463v368.992c0 4.41 2.718 8.181 6.569 9.741l-.001.003 87.604 35.472H22.988zm188.098-5.084l-73.144-29.618h73.144v29.618zM94.478 435.243V237.597h32.585v152.79c0 5.806 4.707 10.514 10.514 10.514h113.766c5.808 0 10.514-4.707 10.514-10.514v-27.334c0-5.806-4.706-10.514-10.514-10.514-5.806 0-10.514 4.707-10.514 10.514v16.82H148.09v-86.206h131.419c5.808 0 10.514-4.707 10.514-10.514 0-5.806-4.706-10.514-10.514-10.514h-17.653v-58.874c0-5.806-4.706-10.514-10.514-10.514-5.806 0-10.514 4.707-10.514 10.514v58.874h-92.739v-70.788c0-5.806-4.707-10.514-10.514-10.514-5.806 0-10.514 4.707-10.514 10.514v14.719H94.478v-96.72h32.585v14.718c0 5.806 4.707 10.514 10.514 10.514 5.806 0 10.514-4.707 10.514-10.514V77.097h92.739v48.359c0 5.806 4.707 10.514 10.514 10.514 5.808 0 10.514-4.707 10.514-10.514V77.097H357.7V272.64h-17.214c-5.808 0-10.514 4.707-10.514 10.514 0 5.806 4.706 10.514 10.514 10.514H357.7v96.721c0 5.806 4.706 10.514 10.514 10.514h49.312v34.342H94.478zm206.438 21.028h73.144l-73.144 29.618v-29.618zm188.097 34.702H344.379l87.604-35.472-.001-.003c3.851-1.56 6.57-5.331 6.57-9.741V76.764h50.461v414.209z"/><path d="M320.585 326.321c-4.107-4.106-10.763-4.106-14.869 0L281.537 350.5c-4.106 4.106-4.106 10.763 0 14.868 4.107 4.106 10.763 4.106 14.869 0l6.23-6.231v31.112c0 5.806 4.706 10.514 10.514 10.514s10.514-4.707 10.514-10.514v-31.112l6.23 6.231a10.49 10.49 0 0 0 7.435 3.08 10.48 10.48 0 0 0 7.435-3.08c4.106-4.106 4.106-10.763 0-14.868l-24.179-24.179z"/></symbol><symbol viewBox="0 0 512 512" id="services-item8"><path d="M503.644 202.228c-2.476-.51-25.152-4.252-57.169 20.022-18.369 13.927-51.543 16.477-54.617 16.685h-60.276c-.268 0-.535.01-.801.03-.579.045-3.961.33-9.502 1.239-6.27-3.861-63.829-38.891-120.625-59.175-42.218-15.08-97.078-4.769-141.16 3.513-20.055 3.769-37.377 7.023-49.044 7.023-5.771 0-10.45 4.679-10.45 10.449V501.55c0 5.771 4.679 10.449 10.449 10.449h491.102c5.77 0 10.449-4.678 10.449-10.449V212.464c0-4.965-3.493-9.243-8.356-10.236zm-482.746 9.695c11.971-1.116 26.376-3.821 42.454-6.843 41.604-7.816 93.38-17.545 130.272-4.372 37.348 13.339 76.009 33.89 98.247 46.486-24.56 7.523-57.572 21.757-89.59 48.503-42.998 35.917-134.154 39.795-171.348 39.795-3.823 0-7.199-.04-10.035-.096V211.923zm0 279.179V356.301c2.866.054 6.235.091 10.035.091 49.032 0 138.232-5.801 184.747-44.654 53.586-44.761 111.495-51.418 116.376-51.905h22.463c-21.965 16.336-50.718 43.972-73.962 87.747-45.656 85.982-86.802 134.257-122.318 143.522H20.898zm414.476 0H267.875c4.386-15.66 18.422-27.184 35.512-27.752a10.45 10.45 0 0 0 9.579-7.179 69.134 69.134 0 0 1 65.809-47.631c31.754 0 59.369 21.468 67.154 52.207 1.217 4.805 5.628 8.11 10.597 7.873.53-.023 1.062-.047 1.598-.047 14.533 0 26.902 9.451 31.282 22.529h-54.032zm55.728-32.124c-7.688-5.97-17.028-9.908-27.208-10.997-12.53-35.898-46.471-60.341-85.119-60.341-36.712 0-69.338 22.026-83.242 55.486a58.796 58.796 0 0 0-49.067 47.975h-44.928c30.681-24.33 62.886-68.578 97.476-133.723 35.959-67.723 86.879-93.607 95.729-97.704 8.621-.696 42.784-4.416 64.358-20.774 13.777-10.446 24.905-14.252 32.001-15.583v235.661zM447.206 46.274C436.901 18.676 410.456 0 380.414 0c-28.568 0-54.009 16.868-65.29 42.616a47.344 47.344 0 0 0-37.754 36.369h-59.246c-5.771 0-10.449 4.679-10.449 10.449-.001 5.771 4.678 10.449 10.448 10.449h256.021c5.77 0 10.449-4.679 10.449-10.449 0-21.931-16.279-40.134-37.387-43.16zM299.228 78.985c3.92-9.308 12.951-15.886 23.715-16.245a10.45 10.45 0 0 0 9.579-7.18 50.314 50.314 0 0 1 47.892-34.662c23.109 0 43.205 15.622 48.871 37.991 1.219 4.815 5.652 8.082 10.618 7.872a21.85 21.85 0 0 1 1.089-.032c8.754 0 16.366 4.98 20.154 12.256H299.228zm-116.631 0h-19.243c-5.771 0-10.449 4.679-10.449 10.449 0 5.771 4.679 10.449 10.449 10.449h19.243c5.77 0 10.449-4.679 10.449-10.449s-4.679-10.449-10.449-10.449zm-68.355-28.828c-12.55 0-23.823 5.544-31.52 14.304-7.698-8.76-18.97-14.305-31.52-14.305-5.77 0-10.449 4.679-10.449 10.449s4.679 10.45 10.449 10.45c11.618 0 21.071 9.453 21.071 21.071 0 5.771 4.679 10.449 10.449 10.449s10.449-4.678 10.449-10.449c0-11.618 9.453-21.071 21.071-21.071 5.77 0 10.449-4.679 10.449-10.449s-4.679-10.449-10.449-10.449z"/><path d="M347.777 152.682c-12.55 0-23.823 5.543-31.52 14.304-7.698-8.76-18.97-14.304-31.52-14.304-5.771 0-10.449 4.679-10.449 10.449s4.678 10.449 10.449 10.449c11.618 0 21.071 9.453 21.071 21.071 0 5.77 4.679 10.449 10.449 10.449s10.449-4.679 10.449-10.449c0-11.618 9.453-21.071 21.071-21.071 5.77 0 10.449-4.679 10.449-10.449s-4.679-10.449-10.449-10.449zm31.153 267.511c-21.138 0-40.814 10.484-52.632 28.045-3.222 4.788-1.953 11.281 2.834 14.503a10.4 10.4 0 0 0 5.825 1.781c3.36 0 6.66-1.619 8.678-4.615 7.93-11.782 21.125-18.816 35.296-18.816 5.77 0 10.449-4.679 10.449-10.449-.001-5.77-4.679-10.449-10.45-10.449zm50.937 25.63a63.84 63.84 0 0 0-11.805-12.121c-4.539-3.566-11.108-2.772-14.67 1.766-3.564 4.539-2.773 11.107 1.766 14.67a42.85 42.85 0 0 1 7.934 8.148 10.432 10.432 0 0 0 8.396 4.218c2.165 0 4.351-.671 6.223-2.063 4.631-3.441 5.597-9.986 2.156-14.618zM217.002 342.046c-3.701-4.429-10.289-5.02-14.718-1.323-3.761 3.141-8.052 6.153-12.756 8.953-4.959 2.951-6.587 9.363-3.635 14.322a10.442 10.442 0 0 0 14.322 3.635c5.653-3.365 10.856-7.022 15.464-10.869 4.429-3.699 5.022-10.289 1.323-14.718zm-44.576 27.756c-1.844-5.467-7.774-8.408-13.241-6.559-37.442 12.634-82.19 16.259-113.138 17.076-5.769.153-10.323 4.952-10.169 10.721.149 5.676 4.796 10.173 10.44 10.173.093 0 .187-.001.281-.004 32.383-.853 79.362-4.698 119.27-18.166 5.466-1.846 8.402-7.774 6.557-13.241z"/></symbol><symbol viewBox="0 0 496 496" id="services-item9"><path d="M448 0h-64v80H0v416h448c26.472 0 48-21.528 48-48V48c0-26.472-21.528-48-48-48zm0 480H16V96h368v320h64c17.648 0 32 14.352 32 32s-14.352 32-32 32zm32-67.752C471.504 404.64 460.28 400 448 400h-48V16h48c17.648 0 32 14.352 32 32v364.248z"/><path d="M264 229.192V424c0 22.056 17.944 40 40 40s40-17.944 40-40V229.192l-40-50-40 50zM280 248h16v120h-16V248zm48 176c0 13.232-10.768 24-24 24s-24-10.768-24-24v-8h48v8zm0-24h-48v-16h48v16zm0-32h-16V248h16v120zm-45.76-136L304 204.808 325.76 232h-43.52zM272 168h24v16h-24zm24-24h16v24h-16zm16 24h24v16h-24zM32 448h16c0-237.68 200.36-263.088 208.888-264.048l-1.776-15.896C252.88 168.296 32 195.76 32 448z"/><path d="M192 272c-22.056 0-40 17.944-40 40s17.944 40 40 40 40-17.944 40-40-17.944-40-40-40zm0 64c-13.232 0-24-10.768-24-24s10.768-24 24-24 24 10.768 24 24-10.768 24-24 24zM72 192c22.056 0 40-17.944 40-40s-17.944-40-40-40-40 17.944-40 40 17.944 40 40 40zm0-64c13.232 0 24 10.768 24 24s-10.768 24-24 24-24-10.768-24-24 10.768-24 24-24z"/></symbol><symbol viewBox="-169 262.9 277 286" id="swape"><path d="M44.5 310.8l-23-23c-2.3-2.3-6.1-2.3-8.5 0-2.3 2.3-2.3 6.1 0 8.5l12.2 12.2h-57.5c-3.3 0-6 2.7-6 6s2.7 6 6 6h58.6l-12.7 12.7c-2.3 2.3-2.3 6.1 0 8.5 1.2 1.2 2.7 1.8 4.2 1.8s3.1-.6 4.2-1.8l22.4-22.4c2.4-2.4 2.4-6.2.1-8.5zm-20.9 79c-6.4-4.2-13-5.9-18.1-6.4-6.6-8.9-16.2-13.7-27.2-13.7-2.4 0-4.9.2-7.4.7-6.5-7.5-15.5-11.5-25.6-11.5h-.6v-36.8c0-8.5-3.3-16-9.2-21.2-5.2-4.6-12-7.1-19.2-7.1-7.8 0-15.2 3-20.4 8.2-5.2 5.2-8 12.2-8 20.2l.1 53.2v33.7c-7.6 4.1-12.8 10.5-15.3 18.8-3.7 12.7-.8 29.1 9.1 50.2 6.5 13.8 14.3 25.9 18.1 31.4l1.7 22.1c.7 9.9 9.1 17.6 18.9 17.6l78.6-.1c9.5 0 17.6-7.1 18.8-16.5L21 509c18.6-29.1 25.4-59.3 20.2-89.7-2.8-16.5-11.1-25.2-17.6-29.5zM10.3 503.4c-.6.9-.9 1.9-1.1 2.9L6 530.7c-.5 3.5-3.4 5.9-6.9 5.9l-78.6-.1c-3.7 0-6.7-2.6-7-6.3l-1.8-23.3c-.1-1.2-.5-2.4-1.2-3.4-7.2-10.5-47.4-71.4-14.8-85 2.6-1.1 4.3-3.6 4.3-6.4 0-16.6-.1-71.7-.1-90.1 0-10.9 8.2-16.4 16.4-16.4s16.4 5.5 16.4 16.4l.1 42.3c0 3.9 3.2 7 7 7 .4 0 .7 0 1.1-.1 1.4-.2 2.9-.4 4.5-.4 5.9 0 12.8 2 18.1 9.3 1.3 1.8 3.4 2.8 5.6 2.8.6 0 1.2-.1 1.8-.2 2.1-.5 4.7-1 7.5-1 6.2 0 13.4 2.2 18.8 10.7 1 1.6 2.8 2.6 4.8 2.7 7.1.3 23.6 3.4 27.4 26.2 3.6 21.2 1.9 49.6-19.1 82.1z"/><path d="M-125.8 350.4c-1.8 0-3.6-.9-4.6-2.5-5.6-8.8-8.6-19.1-8.6-29.6 0-30.4 24.7-55 55-55 30.4 0 55 24.7 55 55 0 10.4-2.9 20.6-8.5 29.4-1.6 2.6-5 3.3-7.6 1.7-2.6-1.6-3.3-5-1.7-7.6 4.4-7 6.8-15.1 6.8-23.5 0-24.3-19.8-44-44-44-24.3 0-44 19.8-44 44 0 8.4 2.4 16.6 6.9 23.7 1.6 2.6.9 6-1.7 7.6-1 .6-2 .8-3 .8z"/></symbol><symbol viewBox="0 0 482.6 482.6" id="tel"><path d="M98.339 320.8c47.6 56.9 104.9 101.7 170.3 133.4 24.9 11.8 58.2 25.8 95.3 28.2 2.3.1 4.5.2 6.8.2 24.9 0 44.9-8.6 61.2-26.3.1-.1.3-.3.4-.5 5.8-7 12.4-13.3 19.3-20 4.7-4.5 9.5-9.2 14.1-14 21.3-22.2 21.3-50.4-.2-71.9l-60.1-60.1c-10.2-10.6-22.4-16.2-35.2-16.2-12.8 0-25.1 5.6-35.6 16.1l-35.8 35.8c-3.3-1.9-6.7-3.6-9.9-5.2-4-2-7.7-3.9-11-6-32.6-20.7-62.2-47.7-90.5-82.4-14.3-18.1-23.9-33.3-30.6-48.8 9.4-8.5 18.2-17.4 26.7-26.1 3-3.1 6.1-6.2 9.2-9.3 10.8-10.8 16.6-23.3 16.6-36s-5.7-25.2-16.6-36l-29.8-29.8c-3.5-3.5-6.8-6.9-10.2-10.4-6.6-6.8-13.5-13.8-20.3-20.1-10.3-10.1-22.4-15.4-35.2-15.4-12.7 0-24.9 5.3-35.6 15.5l-37.4 37.4c-13.6 13.6-21.3 30.1-22.9 49.2-1.9 23.9 2.5 49.3 13.9 80 17.5 47.5 43.9 91.6 83.1 138.7zm-72.6-216.6c1.2-13.3 6.3-24.4 15.9-34l37.2-37.2c5.8-5.6 12.2-8.5 18.4-8.5 6.1 0 12.3 2.9 18 8.7 6.7 6.2 13 12.7 19.8 19.6 3.4 3.5 6.9 7 10.4 10.6l29.8 29.8c6.2 6.2 9.4 12.5 9.4 18.7s-3.2 12.5-9.4 18.7c-3.1 3.1-6.2 6.3-9.3 9.4-9.3 9.4-18 18.3-27.6 26.8l-.5.5c-8.3 8.3-7 16.2-5 22.2.1.3.2.5.3.8 7.7 18.5 18.4 36.1 35.1 57.1 30 37 61.6 65.7 96.4 87.8 4.3 2.8 8.9 5 13.2 7.2 4 2 7.7 3.9 11 6 .4.2.7.4 1.1.6 3.3 1.7 6.5 2.5 9.7 2.5 8 0 13.2-5.1 14.9-6.8l37.4-37.4c5.8-5.8 12.1-8.9 18.3-8.9 7.6 0 13.8 4.7 17.7 8.9l60.3 60.2c12 12 11.9 25-.3 37.7-4.2 4.5-8.6 8.8-13.3 13.3-7 6.8-14.3 13.8-20.9 21.7-11.5 12.4-25.2 18.2-42.9 18.2-1.7 0-3.5-.1-5.2-.2-32.8-2.1-63.3-14.9-86.2-25.8-62.2-30.1-116.8-72.8-162.1-127-37.3-44.9-62.4-86.7-79-131.5-10.3-27.5-14.2-49.6-12.6-69.7z"/></symbol><symbol viewBox="0 0 548.358 548.358" id="vk"><path d="M545.451 400.298c-.664-1.431-1.283-2.618-1.858-3.569-9.514-17.135-27.695-38.167-54.532-63.102l-.567-.571-.284-.28-.287-.287h-.288c-12.18-11.611-19.893-19.418-23.123-23.415-5.91-7.614-7.234-15.321-4.004-23.13 2.282-5.9 10.854-18.36 25.696-37.397 7.807-10.089 13.99-18.175 18.556-24.267 32.931-43.78 47.208-71.756 42.828-83.939l-1.701-2.847c-1.143-1.714-4.093-3.282-8.846-4.712-4.764-1.427-10.853-1.663-18.278-.712l-82.224.568c-1.332-.472-3.234-.428-5.712.144l-3.713.859-1.431.715-1.136.859c-.952.568-1.999 1.567-3.142 2.995-1.137 1.423-2.088 3.093-2.848 4.996-8.952 23.031-19.13 44.444-30.553 64.238-7.043 11.803-13.511 22.032-19.418 30.693-5.899 8.658-10.848 15.037-14.842 19.126-4 4.093-7.61 7.372-10.852 9.849-3.237 2.478-5.708 3.525-7.419 3.142-1.715-.383-3.33-.763-4.859-1.143-2.663-1.714-4.805-4.045-6.42-6.995-1.622-2.95-2.714-6.663-3.285-11.136-.568-4.476-.904-8.326-1-11.563-.089-3.233-.048-7.806.145-13.706.198-5.903.287-9.897.287-11.991 0-7.234.141-15.085.424-23.555.288-8.47.521-15.181.716-20.125.194-4.949.284-10.185.284-15.705s-.336-9.849-1-12.991a44.442 44.442 0 0 0-2.99-9.137c-1.335-2.95-3.289-5.232-5.853-6.852-2.569-1.618-5.763-2.902-9.564-3.856-10.089-2.283-22.936-3.518-38.547-3.71-35.401-.38-58.148 1.906-68.236 6.855-3.997 2.091-7.614 4.948-10.848 8.562-3.427 4.189-3.905 6.475-1.431 6.851 11.422 1.711 19.508 5.804 24.267 12.275l1.715 3.429c1.334 2.474 2.666 6.854 3.999 13.134 1.331 6.28 2.19 13.227 2.568 20.837.95 13.897.95 25.793 0 35.689-.953 9.9-1.853 17.607-2.712 23.127-.859 5.52-2.143 9.993-3.855 13.418-1.715 3.426-2.856 5.52-3.428 6.28-.571.76-1.047 1.239-1.425 1.427a21.387 21.387 0 0 1-7.71 1.431c-2.667 0-5.901-1.334-9.707-4-3.805-2.666-7.754-6.328-11.847-10.992-4.093-4.665-8.709-11.184-13.85-19.558-5.137-8.374-10.467-18.271-15.987-29.691l-4.567-8.282c-2.855-5.328-6.755-13.086-11.704-23.267-4.952-10.185-9.329-20.037-13.134-29.554-1.521-3.997-3.806-7.04-6.851-9.134l-1.429-.859c-.95-.76-2.475-1.567-4.567-2.427a30.301 30.301 0 0 0-6.567-1.854l-78.229.568c-7.994 0-13.418 1.811-16.274 5.428l-1.143 1.711c-.571.953-.859 2.475-.859 4.57 0 2.094.571 4.664 1.714 7.707 11.42 26.84 23.839 52.725 37.257 77.659 13.418 24.934 25.078 45.019 34.973 60.237 9.897 15.229 19.985 29.602 30.264 43.112 10.279 13.515 17.083 22.176 20.412 25.981 3.333 3.812 5.951 6.662 7.854 8.565l7.139 6.851c4.568 4.569 11.276 10.041 20.127 16.416 8.853 6.379 18.654 12.659 29.408 18.85 10.756 6.181 23.269 11.225 37.546 15.126 14.275 3.905 28.169 5.472 41.684 4.716h32.834c6.659-.575 11.704-2.669 15.133-6.283l1.136-1.431c.764-1.136 1.479-2.901 2.139-5.276.668-2.379 1-5 1-7.851-.195-8.183.428-15.558 1.852-22.124 1.423-6.564 3.045-11.513 4.859-14.846 1.813-3.33 3.859-6.14 6.136-8.418 2.282-2.283 3.908-3.666 4.862-4.142.948-.479 1.705-.804 2.276-.999 4.568-1.522 9.944-.048 16.136 4.429 6.187 4.473 11.99 9.996 17.418 16.56 5.425 6.57 11.943 13.941 19.555 22.124 7.617 8.186 14.277 14.271 19.985 18.274l5.708 3.426c3.812 2.286 8.761 4.38 14.853 6.283 6.081 1.902 11.409 2.378 15.984 1.427l73.087-1.14c7.229 0 12.854-1.197 16.844-3.572 3.998-2.379 6.373-5 7.139-7.851.764-2.854.805-6.092.145-9.712-.677-3.611-1.344-6.136-2.008-7.563z"/></symbol></svg>