<svg version="1" xmlns="http://www.w3.org/2000/svg" width="348" height="348" viewBox="0 0 261.000000 261.000000"><path d="M0 130v130h2.8c2.8 0 2.8-.2 15.4-37.3 26-76.5 44.6-131.3 45.7-134 .6-1.5 1.3-4 1.6-5.5.2-1.5 1.4-7.9 2.5-14.2 2.5-13.7 5.3-20 12-26.6C84.7 37.8 93.8 32 96.4 32c.8 0 1.1-3.8 1.1-12.6-.1-12.5.8-16.7 3.8-18.6.7-.4-21.9-.8-50-.8H0v130zM123.2 2.2c-4.2 3-5 6.5-5 21.8-.1 6.9-.1 13.6-.1 15-.1 2-1.1 2.9-5.6 4.9-7.5 3.2-14.9 10.6-18.8 18.9-2.9 6.1-3.2 7.5-3.2 16.7 0 11.6.4 12.6 9.6 23.6 3.4 4.1 7.8 9.4 9.8 11.8 7.1 8.7 14.5 17.6 15.1 18.1.3.3 6.2 7 13 15 6.9 8 12.7 14.7 13 15 .3.3 3 3.4 6 7s5.8 6.7 6.1 7c.3.3 3.5 3.9 7 8s7.6 8.8 9 10.5c1.5 1.6 9.1 10.4 16.9 19.5 7.8 9.1 15.4 17.8 16.9 19.5 1.4 1.6 6.4 7.4 11 12.7 4.5 5.4 8.4 9.8 8.6 9.8.2 0-3-9.8-7.1-21.7-6.8-19.5-15.1-43.5-17.4-50.3-.4-1.4-4.4-12.9-8.8-25.5-4.4-12.7-9-25.9-10.2-29.5-1.2-3.6-2.5-7.4-3-8.5-.5-1.1-2.4-6.7-4.4-12.5-8.3-25-14.8-42.9-17.7-48.7-3.5-7.2-9.7-13.2-17.2-16.9l-5.3-2.6.1-15.1c.1-8.4-.3-16.4-.7-17.8-2.3-7-11.5-10-17.6-5.7zM157.9 2.1c2.5 2.7 2.7 4.1 2.6 18.1 0 6.5.3 11.8.8 11.8 2.8 0 12 5.7 16.5 10.2 7.8 7.7 10.1 13.2 12.7 29.8.5 3.2.9 5.2 1.9 10.5.5 2.1 9.8 29.7 33.9 100.5 7.9 23.4 17.1 50.3 20.3 59.7l5.9 17.3h8.5V0H155.9l2 2.1zM80.5 101.7c-.9 2.7-4.5 13.1-8 23.3-3.5 10.2-10.7 31.1-16 46.5-5.3 15.4-11.6 34.1-14.1 41.5-2.5 7.4-4.8 14.2-5.1 15-1.6 4.2-10.3 29.5-10.3 29.9 0 .4 2.4-2.3 17.5-19.9 5.9-6.9 11.7-13.6 12.9-15 1.1-1.4 15.6-18.3 32-37.5 16.4-19.3 30.8-36 31.9-37.2l2-2.2-4.4-5.3c-2.4-2.9-4.6-5.5-4.9-5.8-.3-.3-3.4-4.1-7-8.5-3.5-4.4-6.9-8.5-7.5-9.1-.5-.6-4.5-5.5-8.9-10.8-4.3-5.3-8-9.6-8.1-9.6-.2 0-1.1 2.1-2 4.7zM126.4 174.5c-8.7 2.6-18.8 11.8-42 38.5-3.9 4.5-6 6.9-16.9 19-5.3 5.9-15.6 16.7-22.9 24.2-1.6 1.6-2.6 3.1-2.4 3.4.3.2 39.9.3 88.1.2l87.6-.3-6.1-6.5c-11.1-12-14.2-15.4-24.8-27.5-5.8-6.6-10.9-12.5-11.5-13.1-.5-.6-3.2-3.7-6-6.9-22.2-25.9-33.3-33.9-43.1-31z"/></svg>