<?xml version="1.0" encoding="utf-8"?>
<!-- Generator: Adobe Illustrator 19.0.0, SVG Export Plug-In . SVG Version: 6.00 Build 0)  -->
<svg version="1.1" id="_x31_" xmlns="http://www.w3.org/2000/svg" xmlns:xlink="http://www.w3.org/1999/xlink" x="0px" y="0px"
	 viewBox="0 0 68.9 63.3" enable-background="new 0 0 68.9 63.3" xml:space="preserve">
<g>
	<path fill-rule="evenodd" fill="#2b2a29" clip-rule="evenodd" d="M20.2,44.4c0-1.6-0.8-2.9-2.3-2.9c-1.4,0-2.3,1-2.3,2.8c0,1.6,0.8,2.9,2.4,2.9
		C19.4,47.3,20.2,46.2,20.2,44.4L20.2,44.4z M19.2,44.5c0,1.5-0.4,2.1-1.2,2.1c-1,0-1.3-0.8-1.3-2.2c0-1.3,0.4-2.1,1.3-2.1
		C18.9,42.3,19.2,43.1,19.2,44.5L19.2,44.5z M24.2,41l-0.3,0.2l-1.3,0.5c-0.3,0.1-0.6,0.3-0.9,0.6c-0.2,0.2-0.4,0.5-0.5,0.8
		c-0.2,0.6-0.2,1.2-0.2,1.7c0,0.7,0,1.4,0.5,2c0.4,0.4,0.8,0.6,1.3,0.6c0.6,0,1.1-0.3,1.3-0.6c0.2-0.3,0.5-0.7,0.5-1.5
		c0-0.9-0.3-1.3-0.5-1.5c-0.2-0.3-0.6-0.5-1.2-0.5c-0.3,0-0.6,0.1-0.8,0.2c-0.2,0.1-0.3,0.3-0.4,0.4l0,0l0-0.2c0-0.2,0.1-0.8,0.7-1
		l1-0.4c0.1,0,0.3-0.1,0.5-0.2c0.2-0.1,0.3-0.1,0.5-0.2L24.2,41L24.2,41z M22.9,43.8c0.2,0,0.4,0.1,0.6,0.3c0.2,0.3,0.2,0.8,0.2,1.1
		c0,0.3,0,0.8-0.2,1.1c-0.2,0.3-0.4,0.3-0.6,0.3c-0.2,0-0.4-0.1-0.6-0.3c-0.1-0.2-0.2-0.7-0.2-1.1c0-0.3,0-0.8,0.2-1.1
		C22.4,43.9,22.6,43.8,22.9,43.8L22.9,43.8z M26.2,43.2l0,0.8c0,0.5,0,0.8-0.1,1.3c0,0.5-0.1,1-0.3,1.2c-0.1,0.1-0.3,0.2-0.4,0.2
		l-0.2,0l0.2,0.6l0.2,0c0.2,0,0.6-0.1,0.8-0.3c0.2-0.2,0.3-0.5,0.3-0.7c0-0.3,0.1-0.8,0.1-1c0-0.4,0.1-0.7,0.1-0.9l0-0.4h0.9v3.4
		h0.9v-4.1H26.2L26.2,43.2z M33.3,46.8c-0.3-0.2-0.4-0.4-0.4-0.9l0-1.2c0-0.6,0-0.8-0.1-1c-0.2-0.4-0.6-0.7-1.2-0.7
		c-0.6,0-1.1,0.2-1.7,0.6l0.4,0.6c0,0,0.6-0.5,1.2-0.5c0.5,0,0.6,0.2,0.6,0.7v0.2h-0.3c-1.3,0-2,0.5-2,1.4c0,0.7,0.4,1.2,1.3,1.2
		c0.4,0,0.8-0.1,1.1-0.5c0.1,0.3,0.3,0.4,0.6,0.5L33.3,46.8L33.3,46.8z M32.1,45.3l0,1c-0.2,0.3-0.4,0.4-0.7,0.4
		c-0.4,0-0.6-0.2-0.6-0.6c0-0.5,0.3-0.8,1.1-0.8C32,45.3,32.1,45.3,32.1,45.3L32.1,45.3z M37.1,46.8l-0.4-0.5
		c-0.3,0.3-0.5,0.4-0.8,0.4c-0.2,0-0.4-0.1-0.5-0.2c-0.2-0.2-0.3-0.6-0.3-1.1c0-0.5,0-0.9,0.2-1.1c0.1-0.3,0.4-0.4,0.6-0.4
		c0.2,0,0.4,0.1,0.7,0.3l0.4-0.6c-0.4-0.3-0.7-0.4-1.1-0.4c-0.9,0-1.8,0.7-1.8,2.2c0,1.3,0.6,2.1,1.7,2.1
		C36.3,47.3,36.7,47.1,37.1,46.8L37.1,46.8z M39.3,43.8h1l0.1-0.7h-3.1v0.7h1.1v3.4h0.9V43.8L39.3,43.8z M42,45.4h1.4v1.8h0.9v-4.1
		l-0.9,0.2v1.5H42v-1.7l-0.9,0.2v4H42V45.4L42,45.4z M48.9,45.2c0-1.3-0.7-2.1-1.8-2.1c-1.1,0-1.8,0.8-1.8,2.1
		c0,1.3,0.7,2.1,1.8,2.1S48.9,46.5,48.9,45.2L48.9,45.2z M47.9,45.2c0,1-0.3,1.5-0.8,1.5c-0.5,0-0.8-0.3-0.8-1.5
		c0-1,0.2-1.4,0.8-1.4C47.6,43.7,47.9,44.1,47.9,45.2L47.9,45.2z M53.1,45.4v-0.2c0-0.9-0.2-1.4-0.5-1.8c-0.3-0.3-0.7-0.4-1.1-0.4
		c-0.5,0-0.9,0.2-1.2,0.5c-0.4,0.4-0.5,0.9-0.5,1.6c0,1.3,0.7,2.1,1.9,2.1c0.5,0,1-0.2,1.5-0.5l-0.3-0.5c-0.3,0.3-0.6,0.4-1,0.4
		c-0.8,0-1-0.6-1-1.2v-0.1H53.1L53.1,45.4z M52.2,44.8h-1.5c0-0.7,0.3-1,0.8-1C51.9,43.7,52.2,44.1,52.2,44.8L52.2,44.8z M15.7,49.6
		l-0.3,0c-0.3,0-0.5,0.1-0.7,0.3c-0.2,0.2-0.3,0.4-0.3,0.6l-0.2,0.7c0,0.2-0.1,0.4-0.2,0.5c-0.2,0.2-0.4,0.2-0.6,0.2h-0.6v-2.2h-0.9
		v5.5h0.9v-2.6h0.5c0.2,0,0.4,0,0.5,0.2c0.2,0.1,0.2,0.4,0.3,0.5l0.2,0.8c0,0.2,0.1,0.5,0.3,0.7c0.2,0.2,0.6,0.3,0.9,0.3l0.3,0
		l0.2-0.6l-0.2-0.1c-0.1,0-0.3-0.1-0.3-0.2c-0.1-0.1-0.1-0.2-0.2-0.4L15,53.1c-0.1-0.2-0.1-0.4-0.4-0.6c-0.1-0.1-0.2-0.2-0.3-0.2v0
		c0.2,0,0.3-0.1,0.4-0.2c0.2-0.2,0.3-0.4,0.3-0.7l0.1-0.6c0-0.1,0.1-0.3,0.2-0.4c0.1-0.1,0.2-0.1,0.3-0.1l0.3-0.1L15.7,49.6
		L15.7,49.6z M20,54.9c-0.3-0.2-0.4-0.4-0.4-0.9l0-1.2c0-0.6,0-0.8-0.1-1c-0.2-0.4-0.6-0.7-1.2-0.7c-0.6,0-1.1,0.2-1.7,0.6l0.4,0.6
		c0,0,0.6-0.5,1.2-0.5c0.5,0,0.6,0.2,0.6,0.7v0.2h-0.3c-1.3,0-2,0.5-2,1.4c0,0.7,0.4,1.2,1.3,1.2c0.4,0,0.8-0.1,1.1-0.5
		c0.1,0.3,0.3,0.4,0.6,0.5L20,54.9L20,54.9z M18.8,53.3l0,1c-0.2,0.3-0.4,0.4-0.7,0.4c-0.4,0-0.6-0.2-0.6-0.6c0-0.5,0.3-0.8,1.1-0.8
		C18.7,53.3,18.8,53.3,18.8,53.3L18.8,53.3z M24.4,54.6h-0.5v-3.4h-2.5l0,0.6c0,0.4,0,0.9-0.2,1.5c-0.1,0.4-0.3,0.9-0.5,1.4h-0.3
		v1.8h0.8v-1.1h2.4v1.1h0.8V54.6L24.4,54.6z M23,51.8v2.8h-1.5c0.2-0.3,0.3-0.7,0.4-1.1c0.1-0.4,0.2-0.8,0.2-1.3l0-0.4H23L23,51.8z
		 M28.5,54.9c-0.3-0.2-0.4-0.4-0.4-0.9l0-1.2c0-0.6,0-0.8-0.1-1c-0.2-0.4-0.6-0.7-1.2-0.7c-0.6,0-1.1,0.2-1.7,0.6l0.4,0.6
		c0,0,0.6-0.5,1.2-0.5c0.5,0,0.6,0.2,0.6,0.7v0.2H27c-1.3,0-2,0.5-2,1.4c0,0.7,0.4,1.2,1.3,1.2c0.4,0,0.8-0.1,1.1-0.5
		c0.1,0.3,0.3,0.4,0.6,0.5L28.5,54.9L28.5,54.9z M27.3,53.3l0,1c-0.2,0.3-0.4,0.4-0.7,0.4c-0.4,0-0.6-0.2-0.6-0.6
		c0-0.5,0.3-0.8,1.1-0.8C27.2,53.3,27.3,53.3,27.3,53.3L27.3,53.3z M32.3,54.8l-0.4-0.5c-0.3,0.3-0.5,0.4-0.8,0.4
		c-0.2,0-0.4-0.1-0.5-0.2c-0.2-0.2-0.3-0.6-0.3-1.1c0-0.5,0-0.9,0.2-1.1c0.1-0.3,0.4-0.4,0.6-0.4c0.2,0,0.4,0.1,0.7,0.3l0.4-0.6
		c-0.4-0.3-0.7-0.4-1.1-0.4c-0.9,0-1.8,0.7-1.8,2.2c0,1.3,0.6,2.1,1.7,2.1C31.5,55.3,31.9,55.2,32.3,54.8L32.3,54.8z M34.5,51.8h1
		l0.1-0.7h-3.1v0.7h1.1v3.4h0.9V51.8L34.5,51.8z M36.3,51.2c0,0.2,0.1,0.5,0.1,1V57l0.8-0.2v-1.2c0-0.2,0-0.4,0-0.6
		c0.4,0.3,0.8,0.3,1,0.3c0.5,0,0.8-0.2,1-0.4c0.3-0.3,0.6-0.9,0.6-1.8c0-0.9-0.3-1.4-0.5-1.7c-0.2-0.2-0.5-0.4-1-0.4
		c-0.3,0-0.8,0.1-1.1,0.5c0-0.2,0-0.3-0.1-0.5L36.3,51.2L36.3,51.2z M37.2,52.2c0.2-0.2,0.5-0.4,0.9-0.4c0.2,0,0.3,0,0.5,0.2
		c0.2,0.2,0.3,0.7,0.3,1.2c0,0.3,0,0.9-0.4,1.2c-0.1,0.1-0.3,0.2-0.4,0.2c-0.3,0-0.6-0.2-0.8-0.4V52.2L37.2,52.2z M44.1,53.2
		c0-1.3-0.7-2.1-1.8-2.1c-1.1,0-1.8,0.8-1.8,2.1c0,1.3,0.7,2.1,1.8,2.1S44.1,54.5,44.1,53.2L44.1,53.2z M43.1,53.2
		c0,1-0.3,1.5-0.8,1.5c-0.5,0-0.8-0.3-0.8-1.5c0-1,0.2-1.4,0.8-1.4C42.8,51.7,43.1,52.1,43.1,53.2L43.1,53.2z M45.1,51.2v4.1h1.8
		c0.7,0,1-0.3,1-0.3c0.1-0.1,0.3-0.4,0.3-0.8c0-0.3-0.1-0.5-0.3-0.7c-0.1-0.1-0.2-0.2-0.5-0.3c0.2-0.1,0.3-0.2,0.4-0.3
		c0.2-0.2,0.2-0.4,0.2-0.6c0-0.2,0-0.5-0.3-0.7c-0.3-0.3-0.8-0.3-1-0.3H45.1L45.1,51.2z M46,51.8h0.6c0.2,0,0.4,0,0.5,0.1
		c0.1,0.1,0.2,0.3,0.2,0.4c0,0.1,0,0.3-0.1,0.4c-0.2,0.1-0.4,0.2-0.5,0.2H46V51.8L46,51.8z M46,53.4h0.6c0.2,0,0.4,0,0.5,0.1
		c0.2,0.1,0.2,0.4,0.2,0.5c0,0.1,0,0.3-0.2,0.4c-0.1,0.1-0.4,0.2-0.6,0.2H46V53.4L46,53.4z M52.8,53.2c0-1.3-0.7-2.1-1.8-2.1
		c-1.1,0-1.8,0.8-1.8,2.1c0,1.3,0.7,2.1,1.8,2.1S52.8,54.5,52.8,53.2L52.8,53.2z M51.8,53.2c0,1-0.3,1.5-0.8,1.5
		c-0.5,0-0.8-0.3-0.8-1.5c0-1,0.2-1.4,0.8-1.4C51.5,51.7,51.8,52.1,51.8,53.2L51.8,53.2z M57,53.4v-0.2c0-0.9-0.2-1.4-0.5-1.8
		c-0.3-0.3-0.7-0.4-1.1-0.4c-0.5,0-0.9,0.2-1.2,0.5c-0.4,0.4-0.5,0.9-0.5,1.6c0,1.3,0.7,2.1,1.9,2.1c0.5,0,1-0.2,1.5-0.5l-0.3-0.5
		c-0.3,0.3-0.6,0.4-1,0.4c-0.8,0-1-0.6-1-1.2v-0.1H57L57,53.4z M56.1,52.8h-1.5c0-0.7,0.3-1,0.8-1C55.8,51.7,56.1,52.1,56.1,52.8
		L56.1,52.8z M21.4,63.3l-1.8-5.5h-1.1l-1.8,5.5h1l0.4-1.5h1.8l0.4,1.5H21.4L21.4,63.3z M18.3,61.1c0.2-0.8,0.5-1.6,0.7-2.4
		c0.2,0.8,0.4,1.6,0.7,2.4H18.3L18.3,61.1z M22.9,59.9h1.6l0.1-0.7H22v4.1h0.9V59.9L22.9,59.9z M28.4,61.5v-0.2
		c0-0.9-0.2-1.4-0.5-1.8c-0.3-0.3-0.7-0.4-1.1-0.4c-0.5,0-0.9,0.2-1.2,0.5c-0.4,0.4-0.5,0.9-0.5,1.6c0,1.3,0.7,2.1,1.9,2.1
		c0.5,0,1-0.2,1.5-0.5L28,62.3c-0.3,0.3-0.6,0.4-1,0.4c-0.8,0-1-0.6-1-1.2v-0.1H28.4L28.4,61.5z M27.5,60.8H26c0-0.7,0.3-1,0.8-1
		C27.2,59.8,27.5,60.2,27.5,60.8L27.5,60.8z M30.3,61.5h1.4v1.8h0.9v-4.1l-0.9,0.2v1.5h-1.4v-1.7l-0.9,0.2v4h0.9V61.5L30.3,61.5z
		 M35.2,59.9h1l0.1-0.7h-3.1v0.7h1.1v3.4h0.9V59.9L35.2,59.9z M39.8,62.8l-0.4-0.5c-0.3,0.3-0.5,0.4-0.8,0.4c-0.2,0-0.4-0.1-0.5-0.2
		c-0.2-0.2-0.3-0.6-0.3-1.1c0-0.5,0-0.9,0.2-1.1c0.1-0.3,0.4-0.4,0.6-0.4c0.2,0,0.4,0.1,0.7,0.3l0.4-0.6c-0.4-0.3-0.7-0.4-1.1-0.4
		c-0.9,0-1.8,0.7-1.8,2.2c0,1.3,0.6,2.1,1.7,2.1C39,63.4,39.4,63.2,39.8,62.8L39.8,62.8z M42,59.9h1l0.1-0.7h-3.1v0.7h1.1v3.4H42
		V59.9L42,59.9z M43.8,59.2v4.1h1.8c0.7,0,1-0.3,1-0.3c0.1-0.1,0.3-0.4,0.3-0.8c0-0.3-0.1-0.5-0.3-0.7c-0.1-0.1-0.2-0.2-0.5-0.3
		c0.2-0.1,0.3-0.2,0.4-0.3c0.2-0.2,0.2-0.4,0.2-0.6c0-0.2,0-0.5-0.3-0.7c-0.3-0.3-0.8-0.3-1-0.3H43.8L43.8,59.2z M44.7,59.8h0.6
		c0.2,0,0.4,0,0.5,0.1c0.1,0.1,0.2,0.3,0.2,0.4c0,0.1,0,0.3-0.1,0.4c-0.2,0.1-0.4,0.2-0.5,0.2h-0.6V59.8L44.7,59.8z M44.7,61.5h0.6
		c0.2,0,0.4,0,0.5,0.1c0.2,0.1,0.2,0.4,0.2,0.5c0,0.1,0,0.3-0.2,0.4c-0.1,0.1-0.4,0.2-0.6,0.2h-0.6V61.5L44.7,61.5z M51.5,61.3
		c0-1.3-0.7-2.1-1.8-2.1c-1.1,0-1.8,0.8-1.8,2.1c0,1.3,0.7,2.1,1.8,2.1S51.5,62.6,51.5,61.3L51.5,61.3z M50.5,61.3
		c0,1-0.3,1.5-0.8,1.5c-0.5,0-0.8-0.3-0.8-1.5c0-1,0.2-1.4,0.8-1.4C50.2,59.8,50.5,60.1,50.5,61.3z"/>
	<path fill-rule="evenodd" clip-rule="evenodd" fill="#008F8F" d="M45.9,35.2h-23c0.8-0.9,1.8-1.9,1.9-2c11.4-12.3,8-12.3,19.3,0.1
		C44.2,33.4,45.3,34.6,45.9,35.2z"/>
	<polygon fill-rule="evenodd" clip-rule="evenodd" fill="#2b2a29" points="21,33.6 33.5,19 28.2,12.6 	"/>
	<path fill-rule="evenodd" clip-rule="evenodd" fill="#8EBFD9" d="M0,35.2h17.7l0.6-1.7l1.8-5.6c0.7-2.2,1.2-3.7-0.3-4
		c-2.3-0.5-7.7,1.8-9.8,3c-3,1.7-5.8,4-8.5,6.6C1.5,33.6,0.5,34.6,0,35.2z"/>
	<path fill-rule="evenodd" clip-rule="evenodd" fill="#008E69" d="M68.9,35.2H51.2l-0.6-1.7l-1.8-5.6c-0.7-2.2-1.2-3.7,0.3-4
		c2.3-0.5,7.7,1.8,9.8,3c3,1.7,5.8,4,8.5,6.6C67.4,33.6,68.4,34.6,68.9,35.2z"/>
	<path fill-rule="evenodd" clip-rule="evenodd" fill="#2b2a29" d="M39.6,9.8l8.2,23.7L33.1,16.5l-2.9-3.5c-0.5-0.6-0.7-0.8-0.9-1.6
		c-0.1-0.4-0.1-0.7-0.1-1.1c0-2.3,1.6-4.3,3.7-4.9V1.5c0-0.8,0.7-1.5,1.5-1.5h0c0.8,0,1.5,0.7,1.5,1.5v3.9
		C38.2,6.1,38.9,7.7,39.6,9.8z"/>
	<circle fill-rule="evenodd" clip-rule="evenodd" fill="#FFFFFF" cx="34.4" cy="9.9" r="2.4"/>
</g>
</svg>
