<?xml version="1.0" encoding="utf-8"?>
<!-- Generator: Adobe Illustrator 19.0.0, SVG Export Plug-In . SVG Version: 6.00 Build 0)  -->
<svg version="1.1" id="Слой_1" xmlns="http://www.w3.org/2000/svg" xmlns:xlink="http://www.w3.org/1999/xlink" x="0px" y="0px"
	 viewBox="0 0 47.1 25" enable-background="new 0 0 47.1 25" xml:space="preserve">
<path id="XMLID_82_" d="M46.1,11.5H4.6l8.9-8.9c0.6-0.6,0.6-1.5,0-2.1c-0.6-0.6-1.5-0.6-2.1,0l-11,11C0.2,11.7,0,12.1,0,12.5
	s0.2,0.8,0.4,1.1l11,11c0.3,0.3,0.7,0.4,1.1,0.4s0.8-0.1,1.1-0.4c0.6-0.6,0.6-1.5,0-2.1l-8.9-8.9h41.5c0.6,0,1-0.4,1-1
	S46.6,11.5,46.1,11.5z"/>
</svg>
