<?xml version="1.0" encoding="utf-8"?>
<!-- Generator: Adobe Illustrator 19.0.0, SVG Export Plug-In . SVG Version: 6.00 Build 0)  -->
<svg version="1.1" id="Слой_1" xmlns="http://www.w3.org/2000/svg" xmlns:xlink="http://www.w3.org/1999/xlink" x="0px" y="0px"
	 viewBox="0 0 47.1 25" enable-background="new 0 0 47.1 25" xml:space="preserve">
<path id="XMLID_82_" d="M1,11.5h41.5l-8.9-8.9c-0.6-0.6-0.6-1.5,0-2.1c0.6-0.6,1.5-0.6,2.1,0l11,11c0.3,0.3,0.4,0.7,0.4,1.1
	s-0.2,0.8-0.4,1.1l-11,11C35.4,24.9,35,25,34.6,25s-0.8-0.1-1.1-0.4c-0.6-0.6-0.6-1.5,0-2.1l8.9-8.9H1c-0.6,0-1-0.4-1-1
	C0,11.9,0.4,11.5,1,11.5z"/>
</svg>
