<?xml version="1.0" encoding="iso-8859-1"?>
<!-- Generator: Adobe Illustrator 19.0.0, SVG Export Plug-In . SVG Version: 6.00 Build 0)  -->
<svg version="1.1" id="Layer_1" xmlns="http://www.w3.org/2000/svg" xmlns:xlink="http://www.w3.org/1999/xlink" x="0px" y="0px"
	 viewBox="0 0 512.001 512.001" style="enable-background:new 0 0 512.001 512.001;" xml:space="preserve">
<g>
	<g>
		<path d="M423.156,458.176c-20.852-6.193-42.415-12.598-84.882-12.598c-42.469,0-64.031,6.404-84.883,12.598
			c-20.501,6.089-39.866,11.841-79.678,11.841c-39.805,0-59.166-5.752-79.664-11.84c-19.297-5.732-39.2-11.645-75.72-12.495v-92.304
			c0-5.061-4.103-9.165-9.165-9.165c-5.061,0-9.165,4.103-9.165,9.165v101.365c0,5.061,4.103,9.165,9.165,9.165
			c39.805,0,59.166,5.752,79.664,11.84c20.853,6.194,42.414,12.6,84.884,12.6c42.476,0,64.042-6.406,84.897-12.6
			c20.498-6.088,39.86-11.84,79.664-11.84c39.803,0,59.165,5.751,79.662,11.838l0.004,0.001c4.855,1.443,9.954-1.325,11.394-6.176
			C430.775,464.719,428.009,459.616,423.156,458.176z"/>
	</g>
</g>
<g>
	<g>
		<path d="M335.885,71.7c-36.602,0-66.38,29.779-66.38,66.382c0,36.603,29.778,66.382,66.38,66.382
			c36.603,0,66.382-29.779,66.382-66.382C402.267,101.479,372.488,71.7,335.885,71.7z M335.885,186.135
			c-26.496,0-48.051-21.557-48.051-48.052c0-26.496,21.557-48.052,48.051-48.052c26.497,0,48.052,21.557,48.052,48.052
			C383.938,164.579,362.381,186.135,335.885,186.135z"/>
	</g>
</g>
<g>
	<g>
		<path d="M199.197,320.344c-1.18-7.669-3.492-15.173-6.871-22.304c-2.167-4.574-7.631-6.525-12.206-4.359
			c-4.574,2.167-6.525,7.632-4.359,12.206c2.62,5.529,4.409,11.331,5.32,17.247c0.698,4.53,4.601,7.77,9.046,7.77
			c0.463,0,0.934-0.035,1.406-0.108C196.537,330.027,199.967,325.347,199.197,320.344z"/>
	</g>
</g>
<g>
	<g>
		<path d="M216.231,369.649c-3.629-4.807-6.731-10.197-9.22-16.021c-1.991-4.654-7.377-6.814-12.03-4.824
			c-4.656,1.989-6.815,7.375-4.826,12.029c3.072,7.186,6.924,13.868,11.446,19.859c1.802,2.388,4.544,3.644,7.322,3.644
			c1.922,0,3.861-0.604,5.515-1.851C218.479,379.434,219.281,373.687,216.231,369.649z"/>
	</g>
</g>
<g>
	<g>
		<path d="M167.263,266.408c-5.804-4.778-12.196-8.964-18.998-12.446c-4.505-2.306-10.027-0.524-12.333,3.982
			c-2.306,4.507-0.523,10.027,3.982,12.333c5.63,2.883,10.913,6.342,15.702,10.283c1.706,1.404,3.767,2.088,5.818,2.088
			c2.646,0,5.27-1.14,7.081-3.341C171.731,275.4,171.171,269.624,167.263,266.408z"/>
	</g>
</g>
<g>
	<g>
		<path d="M62.381,262.176c-2.248-4.533-7.748-6.387-12.283-4.136c-6.481,3.215-12.846,6.771-18.922,10.566
			c-4.293,2.682-5.598,8.336-2.916,12.628c1.739,2.784,4.725,4.311,7.781,4.311c1.658,0,3.337-0.45,4.848-1.394
			c5.57-3.48,11.408-6.74,17.355-9.691C62.778,272.21,64.631,266.711,62.381,262.176z"/>
	</g>
</g>
<g>
	<g>
		<path d="M109.778,242.904c-8.009-0.609-15.889-0.125-23.247,1.422c-4.953,1.041-8.124,5.901-7.082,10.855
			c0.908,4.316,4.717,7.279,8.959,7.279c0.626,0,1.26-0.065,1.895-0.198c5.666-1.191,11.799-1.559,18.087-1.081
			c5.053,0.379,9.448-3.398,9.832-8.445C118.607,247.689,114.825,243.287,109.778,242.904z"/>
	</g>
</g>
<g>
	<g>
		<path d="M258.493,397.187c-6.237-1.708-12.128-3.996-17.511-6.797c-4.491-2.336-10.023-0.59-12.36,3.898
			c-2.338,4.49-0.591,10.024,3.898,12.36c6.534,3.402,13.643,6.165,21.131,8.216c0.81,0.222,1.625,0.329,2.426,0.329
			c4.028,0,7.718-2.674,8.833-6.746C266.249,403.565,263.375,398.524,258.493,397.187z"/>
	</g>
</g>
<g>
	<g>
		<path d="M361.988,368.407c-4.672-1.953-10.038,0.248-11.991,4.917c-2.165,5.174-5.395,9.625-9.597,13.229
			c-3.842,3.296-4.285,9.08-0.991,12.923c1.812,2.114,4.38,3.199,6.961,3.199c2.112,0,4.233-0.726,5.962-2.208
			c6.391-5.482,11.295-12.234,14.573-20.069C368.859,375.729,366.657,370.36,361.988,368.407z"/>
	</g>
</g>
<g>
	<g>
		<path d="M369.811,338.857c-2.245-10.145-6.197-18.628-10.844-23.275c-3.58-3.579-9.382-3.579-12.961,0s-3.579,9.382,0,12.96
			c1.366,1.365,4.177,6.447,5.908,14.274c0.946,4.276,4.735,7.188,8.94,7.188c0.655,0,1.321-0.071,1.988-0.219
			C367.783,348.691,370.904,343.799,369.811,338.857z"/>
	</g>
</g>
<g>
	<g>
		<path d="M321.98,405.869c-0.989-4.965-5.815-8.187-10.776-7.201c-6.227,1.239-12.67,1.986-19.153,2.219
			c-5.059,0.182-9.012,4.43-8.83,9.489c0.178,4.945,4.244,8.835,9.152,8.835c0.11,0,0.222-0.003,0.335-0.006
			c7.459-0.269,14.886-1.129,22.072-2.559C319.745,415.657,322.967,410.832,321.98,405.869z"/>
	</g>
</g>
<g>
	<g>
		<path d="M502.835,103.834c-28.332,0-46.34-3.04-59.965-6.36c-7.671-23.601-22.651-42.987-43.907-56.238
			c-33.238-20.722-78.149-23.35-114.414-6.7c-4.599,2.113-6.616,7.553-4.504,12.152c2.112,4.599,7.549,6.617,12.152,4.505
			c30.814-14.15,68.915-11.953,97.069,5.598c25.679,16.008,40.288,43.136,41.133,76.386c0.035,1.378,0.054,2.76,0.054,4.147
			c0,63.47-37.129,120.348-94.928,145.97c-57.797-25.621-94.926-82.499-94.926-145.97c0-1.387,0.017-2.769,0.052-4.147
			c0.632-24.801,8.867-46.319,23.815-62.228c3.465-3.689,3.285-9.488-0.403-12.955c-3.69-3.467-9.49-3.283-12.955,0.403
			c-10.71,11.4-18.543,25.077-23.325,40.428c-11.796,2.532-28.418,5.009-54.072,5.009c-39.805,0-59.166-5.752-79.664-11.84
			c-20.85-6.195-42.413-12.6-84.882-12.6C4.103,79.395,0,83.498,0,88.559v234.27c0,5.061,4.103,9.165,9.165,9.165
			s9.165-4.103,9.165-9.165V97.83c33.742,0.815,51.641,6.131,70.5,11.733c20.853,6.194,42.414,12.6,84.885,12.6
			c18.83,0,34.713-1.212,49.781-3.849c-0.634,4.691-1.04,9.487-1.165,14.396c-0.039,1.532-0.059,3.071-0.059,4.613
			c0,72.179,43.075,136.711,109.74,164.406c1.125,0.467,2.319,0.701,3.516,0.701s2.39-0.233,3.516-0.701
			c66.665-27.694,109.742-92.228,109.742-164.406c0-1.542-0.021-3.081-0.059-4.613c-0.134-5.279-0.574-10.428-1.293-15.441
			c11.782,2.378,26.466,4.325,46.239,4.789v347.85c-14.099-0.348-26.628-1.525-38.086-3.566c-4.976-0.885-9.741,2.433-10.63,7.415
			c-0.888,4.983,2.432,9.743,7.415,10.631c14.954,2.665,31.463,3.96,50.466,3.96c5.063,0,9.165-4.103,9.165-9.165V112.999
			C512,107.936,507.898,103.834,502.835,103.834z"/>
	</g>
</g>
<g>
</g>
<g>
</g>
<g>
</g>
<g>
</g>
<g>
</g>
<g>
</g>
<g>
</g>
<g>
</g>
<g>
</g>
<g>
</g>
<g>
</g>
<g>
</g>
<g>
</g>
<g>
</g>
<g>
</g>
</svg>
