<?xml version="1.0" encoding="iso-8859-1"?>
<!-- Generator: Adobe Illustrator 19.0.0, SVG Export Plug-In . SVG Version: 6.00 Build 0)  -->
<svg version="1.1" id="Layer_1" xmlns="http://www.w3.org/2000/svg" xmlns:xlink="http://www.w3.org/1999/xlink" x="0px" y="0px"
	 viewBox="0 0 512 512" style="enable-background:new 0 0 512 512;" xml:space="preserve">
<g>
	<g>
		<path d="M503.644,202.228c-2.476-0.51-25.152-4.252-57.169,20.022c-18.369,13.927-51.543,16.477-54.617,16.685h-60.276
			c-0.268,0-0.535,0.01-0.801,0.03c-0.579,0.045-3.961,0.33-9.502,1.239c-6.27-3.861-63.829-38.891-120.625-59.175
			c-42.218-15.08-97.078-4.769-141.16,3.513c-20.055,3.769-37.377,7.023-49.044,7.023C4.679,191.565,0,196.244,0,202.014V501.55
			c0,5.771,4.679,10.449,10.449,10.449h491.102c5.77,0,10.449-4.678,10.449-10.449V212.464
			C512,207.499,508.507,203.221,503.644,202.228z M20.898,211.923c11.971-1.116,26.376-3.821,42.454-6.843
			c41.604-7.816,93.38-17.545,130.272-4.372c37.348,13.339,76.009,33.89,98.247,46.486c-24.56,7.523-57.572,21.757-89.59,48.503
			c-42.998,35.917-134.154,39.795-171.348,39.795c-3.823,0-7.199-0.04-10.035-0.096V211.923z M20.898,491.102V356.301
			c2.866,0.054,6.235,0.091,10.035,0.091c49.032,0,138.232-5.801,184.747-44.654c53.586-44.761,111.495-51.418,116.376-51.905
			h22.463c-21.965,16.336-50.718,43.972-73.962,87.747c-45.656,85.982-86.802,134.257-122.318,143.522H20.898z M435.374,491.102
			H267.875c4.386-15.66,18.422-27.184,35.512-27.752c4.383-0.146,8.209-3.013,9.579-7.179c9.365-28.49,35.812-47.631,65.809-47.631
			c31.754,0,59.369,21.468,67.154,52.207c1.217,4.805,5.628,8.11,10.597,7.873c0.53-0.023,1.062-0.047,1.598-0.047
			c14.533,0,26.902,9.451,31.282,22.529H435.374z M491.102,458.978c-7.688-5.97-17.028-9.908-27.208-10.997
			c-12.53-35.898-46.471-60.341-85.119-60.341c-36.712,0-69.338,22.026-83.242,55.486c-25.106,3.847-44.709,23.203-49.067,47.975
			h-44.928c30.681-24.33,62.886-68.578,97.476-133.723c35.959-67.723,86.879-93.607,95.729-97.704
			c8.621-0.696,42.784-4.416,64.358-20.774c13.777-10.446,24.905-14.252,32.001-15.583V458.978z"/>
	</g>
</g>
<g>
	<g>
		<path d="M447.206,46.274C436.901,18.676,410.456,0,380.414,0c-28.568,0-54.009,16.868-65.29,42.616
			c-18.878,3.449-33.659,17.844-37.754,36.369h-59.246c-5.771,0-10.449,4.679-10.449,10.449
			c-0.001,5.771,4.678,10.449,10.448,10.449h256.021c5.77,0,10.449-4.679,10.449-10.449C484.593,67.503,468.314,49.3,447.206,46.274
			z M299.228,78.985c3.92-9.308,12.951-15.886,23.715-16.245c4.382-0.146,8.209-3.013,9.579-7.18
			c6.816-20.732,26.063-34.662,47.892-34.662c23.109,0,43.205,15.622,48.871,37.991c1.219,4.815,5.652,8.082,10.618,7.872
			c0.362-0.018,0.723-0.032,1.089-0.032c8.754,0,16.366,4.98,20.154,12.256H299.228z"/>
	</g>
</g>
<g>
	<g>
		<path d="M182.597,78.985h-19.243c-5.771,0-10.449,4.679-10.449,10.449c0,5.771,4.679,10.449,10.449,10.449h19.243
			c5.77,0,10.449-4.679,10.449-10.449C193.046,83.664,188.367,78.985,182.597,78.985z"/>
	</g>
</g>
<g>
	<g>
		<path d="M114.242,50.157c-12.55,0-23.823,5.544-31.52,14.304c-7.698-8.76-18.97-14.305-31.52-14.305
			c-5.77,0-10.449,4.679-10.449,10.449c0,5.77,4.679,10.45,10.449,10.45c11.618,0,21.071,9.453,21.071,21.071
			c0,5.771,4.679,10.449,10.449,10.449c5.77,0,10.449-4.678,10.449-10.449c0-11.618,9.453-21.071,21.071-21.071
			c5.77,0,10.449-4.679,10.449-10.449C124.691,54.836,120.012,50.157,114.242,50.157z"/>
	</g>
</g>
<g>
	<g>
		<path d="M347.777,152.682c-12.55,0-23.823,5.543-31.52,14.304c-7.698-8.76-18.97-14.304-31.52-14.304
			c-5.771,0-10.449,4.679-10.449,10.449s4.678,10.449,10.449,10.449c11.618,0,21.071,9.453,21.071,21.071
			c0,5.77,4.679,10.449,10.449,10.449c5.77,0,10.449-4.679,10.449-10.449c0-11.618,9.453-21.071,21.071-21.071
			c5.77,0,10.449-4.679,10.449-10.449S353.547,152.682,347.777,152.682z"/>
	</g>
</g>
<g>
	<g>
		<path d="M378.93,420.193c-21.138,0-40.814,10.484-52.632,28.045c-3.222,4.788-1.953,11.281,2.834,14.503
			c1.791,1.205,3.818,1.781,5.825,1.781c3.36,0,6.66-1.619,8.678-4.615c7.93-11.782,21.125-18.816,35.296-18.816
			c5.77,0,10.449-4.679,10.449-10.449C389.379,424.872,384.701,420.193,378.93,420.193z"/>
	</g>
</g>
<g>
	<g>
		<path d="M429.867,445.823c-3.377-4.543-7.349-8.622-11.805-12.121c-4.539-3.566-11.108-2.772-14.67,1.766
			c-3.564,4.539-2.773,11.107,1.766,14.67c2.996,2.352,5.665,5.094,7.934,8.148c2.051,2.761,5.203,4.218,8.396,4.218
			c2.165,0,4.351-0.671,6.223-2.063C432.342,457,433.308,450.455,429.867,445.823z"/>
	</g>
</g>
<g>
	<g>
		<path d="M217.002,342.046c-3.701-4.429-10.289-5.02-14.718-1.323c-3.761,3.141-8.052,6.153-12.756,8.953
			c-4.959,2.951-6.587,9.363-3.635,14.322c1.953,3.283,5.425,5.107,8.988,5.107c1.817,0,3.658-0.474,5.334-1.472
			c5.653-3.365,10.856-7.022,15.464-10.869C220.108,353.065,220.701,346.475,217.002,342.046z"/>
	</g>
</g>
<g>
	<g>
		<path d="M172.426,369.802c-1.844-5.467-7.774-8.408-13.241-6.559c-37.442,12.634-82.19,16.259-113.138,17.076
			c-5.769,0.153-10.323,4.952-10.169,10.721c0.149,5.676,4.796,10.173,10.44,10.173c0.093,0,0.187-0.001,0.281-0.004
			c32.383-0.853,79.362-4.698,119.27-18.166C171.335,381.197,174.271,375.269,172.426,369.802z"/>
	</g>
</g>
<g>
</g>
<g>
</g>
<g>
</g>
<g>
</g>
<g>
</g>
<g>
</g>
<g>
</g>
<g>
</g>
<g>
</g>
<g>
</g>
<g>
</g>
<g>
</g>
<g>
</g>
<g>
</g>
<g>
</g>
</svg>
