<?xml version="1.0" encoding="iso-8859-1"?>
<!-- Generator: Adobe Illustrator 18.0.0, SVG Export Plug-In . SVG Version: 6.00 Build 0)  -->
<!DOCTYPE svg PUBLIC "-//W3C//DTD SVG 1.1//EN" "http://www.w3.org/Graphics/SVG/1.1/DTD/svg11.dtd">
<svg version="1.1" id="Capa_1" xmlns="http://www.w3.org/2000/svg" xmlns:xlink="http://www.w3.org/1999/xlink" x="0px" y="0px"
	 viewBox="0 0 433 433" style="enable-background:new 0 0 433 433;" xml:space="preserve">
<g>
	<path d="M429.6,32.788c-2.121-1.385-4.798-1.605-7.118-0.585L320.713,76.94L113.095,31.739c-1.547-0.335-3.163-0.176-4.613,0.463
		l-104,45.719C1.758,79.118,0,81.812,0,84.787v309.146c0,2.533,1.279,4.896,3.4,6.28c1.238,0.808,2.665,1.22,4.1,1.22
		c1.024,0,2.052-0.209,3.018-0.634l101.769-44.738l207.618,45.201c1.546,0.335,3.163,0.175,4.613-0.463l104-45.719
		c2.724-1.197,4.482-3.891,4.482-6.866V39.068C433,36.535,431.721,34.172,429.6,32.788z M291.027,292.311l-45.598-62.742
		c-16.402-22.569-13.988-53.268,5.74-72.996c10.989-10.989,25.423-16.483,39.858-16.483s28.869,5.495,39.858,16.483
		c19.728,19.728,22.142,50.427,5.74,72.996L291.027,292.311z M126.517,343.807l17.097-17.09l89.125-89.134
		c0.188,0.267,0.365,0.54,0.557,0.804l34.004,46.789l-73.319,73.319L126.517,343.807z M362.175,190.835
		c-1.331-16.928-8.677-32.863-20.684-44.87c-2.079-2.079-4.267-3.984-6.526-5.752L418,57.179v240.958l-65.49-65.489
		C359.91,220.081,363.326,205.476,362.175,190.835z M324.518,91.652l67.444-29.648l-70.084,70.084
		c-21.272-10.175-46.573-9.234-67.087,2.85l-40.371-40.371l20.873-20.873l84.611,18.42C321.451,92.451,323.067,92.29,324.518,91.652
		z M112.287,46.915l105.587,22.987l-34.983,34.982c-2.929,2.929-2.929,7.677,0,10.606c1.464,1.465,3.384,2.197,5.303,2.197
		c1.919,0,3.839-0.732,5.303-2.197l10.317-10.317l38.822,38.822c-0.698,0.645-1.395,1.292-2.073,1.97
		c-12.007,12.007-19.353,27.942-20.684,44.87c-0.893,11.363,0.972,22.702,5.305,33.087l-85.32,85.33l-70.061-70.061l89.36-89.366
		c2.929-2.929,2.929-7.678,0-10.606c-2.929-2.929-7.678-2.929-10.606,0l-42.422,42.425L15,90.507v-0.825L112.287,46.915z
		 M15,272.785v-69.396l45.834-45.834L95.53,192.25L15,272.785z M15,182.176V111.72l35.228,35.228L15,182.176z M15,293.999
		l44.198-44.201l14.27,14.27L15,322.536V293.999z M15,343.749l69.074-69.074l45.184,45.184l-22.065,22.056L15,382.442V343.749z
		 M320.713,386.085l-109.312-23.798l64.826-64.826l8.733,12.016c1.411,1.942,3.667,3.091,6.067,3.091s4.656-1.149,6.067-3.091
		l6.92-9.522l64.923,64.931L320.713,386.085z M383.672,358.409l-70.729-70.739l30.883-42.495L418,319.35v23.968L383.672,358.409z"/>
	<path d="M291.027,161.364c-19.335,0-35.066,15.73-35.066,35.066s15.73,35.066,35.066,35.066s35.066-15.73,35.066-35.066
		S310.363,161.364,291.027,161.364z M291.027,216.496c-11.064,0-20.066-9.001-20.066-20.066s9.001-20.066,20.066-20.066
		s20.066,9.001,20.066,20.066S302.092,216.496,291.027,216.496z"/>
	<path d="M163.605,130.719c1.703,4.349,7.261,5.907,11.09,3.37c3.913-2.592,4.366-8.221,1.14-11.54
		c-2.635-2.562-6.794-2.917-9.772-0.719C163.343,123.839,162.285,127.593,163.605,130.719
		C163.785,131.179,163.415,130.269,163.605,130.719z"/>
</g>
<g>
</g>
<g>
</g>
<g>
</g>
<g>
</g>
<g>
</g>
<g>
</g>
<g>
</g>
<g>
</g>
<g>
</g>
<g>
</g>
<g>
</g>
<g>
</g>
<g>
</g>
<g>
</g>
<g>
</g>
</svg>
